<?xml version="1.0" encoding="UTF-8" standalone="no"?>
<!-- Created with Inkscape (http://www.inkscape.org/) -->

<svg
   width="1072.3595"
   height="1072.3595"
   viewBox="0 0 23.830211 23.830211"
   version="1.1"
   id="svg1"
   xml:space="preserve"
   inkscape:export-filename="2.svg"
   inkscape:export-xdpi="88.888885"
   inkscape:export-ydpi="88.888885"
   xmlns:inkscape="http://www.inkscape.org/namespaces/inkscape"
   xmlns:sodipodi="http://sodipodi.sourceforge.net/DTD/sodipodi-0.dtd"
   xmlns="http://www.w3.org/2000/svg"
   xmlns:svg="http://www.w3.org/2000/svg"
   xmlns:rdf="http://www.w3.org/1999/02/22-rdf-syntax-ns#"
   xmlns:cc="http://creativecommons.org/ns#"
   xmlns:dc="http://purl.org/dc/elements/1.1/"><title
     id="title1">Third bracket</title><sodipodi:namedview
     id="namedview1"
     pagecolor="#ffffff"
     bordercolor="#cccccc"
     borderopacity="1"
     inkscape:showpageshadow="0"
     inkscape:pageopacity="1"
     inkscape:pagecheckerboard="0"
     inkscape:deskcolor="#d1d1d1"
     inkscape:document-units="px" /><defs
     id="defs1" /><g
     inkscape:label="Layer 1"
     inkscape:groupmode="layer"
     id="layer1"
     transform="translate(-0.08489476,-0.08489476)"><g
       style="fill:#000000"
       id="g6"
       transform="matrix(0.12411568,0,0,0.12411568,-3.886807,-3.886807)"><path
         d="m 48,48 v 160 h 32 a 8,8 0 0 1 0,16 H 40 a 8.00039,8.00039 0 0 1 -8,-8 V 40 a 8.00039,8.00039 0 0 1 8,-8 h 40 a 8,8 0 0 1 0,16 z M 216,32 h -40 a 8,8 0 0 0 0,16 h 32 v 160 h -32 a 8,8 0 0 0 0,16 h 40 a 8.00039,8.00039 0 0 0 8,-8 V 40 a 8.00039,8.00039 0 0 0 -8,-8 z"
         id="path1-9" /></g><g
       style="fill:#000000"
       id="g7"
       transform="matrix(0.03040966,0,0,0.03040966,3.0571029,3.5459852)"><g
         id="g10">&#10;	<g
   id="g9">&#10;		<path
   d="m 57.036,330.272 c 2.35,2.48 5.883,3.904 9.702,3.904 2.787,0 5.533,-0.763 7.821,-2.146 0.298,0.033 0.6,0.062 0.926,0.062 h 104.624 c 3.647,0 6.842,-1.273 9.458,-3.889 l 0.388,-0.403 c 2.407,-2.396 3.676,-5.586 3.676,-9.233 v -91.865 c 0,-5.251 -2.489,-8.393 -4.667,-10.13 -1.738,-2.179 -4.875,-4.667 -10.13,-4.667 H 69.109 c -4.349,0 -8.062,1.787 -10.449,5.022 -2.554,3.472 -3.346,8.286 -2.097,12.652 -0.135,30.592 -1.032,61.343 -2.668,91.4 -0.2,3.7 0.885,6.911 3.141,9.293 z m 24.676,-25.231 c 0.996,-22.036 1.607,-44.255 1.815,-66.092 h 83.061 v 66.092 z m 106.504,21.633 z"
   id="path1" />&#10;		<path
   d="m 165.487,198.859 c 2.35,2.477 5.883,3.9 9.702,3.9 2.787,0 5.532,-0.759 7.825,-2.146 0.298,0.033 0.604,0.061 0.926,0.061 h 104.624 c 3.647,0 6.837,-1.273 9.49,-3.917 l 0.351,-0.375 c 2.407,-2.395 3.681,-5.585 3.681,-9.233 V 95.285 c 0,-5.255 -2.489,-8.393 -4.672,-10.127 -1.738,-2.179 -4.875,-4.671 -10.126,-4.671 H 177.559 c -4.349,0 -8.062,1.787 -10.444,5.022 -2.554,3.468 -3.35,8.287 -2.102,12.652 -0.134,30.628 -1.032,61.383 -2.668,91.404 -0.2,3.701 0.885,6.912 3.142,9.294 z m 24.676,-25.234 c 0.996,-21.979 1.607,-44.19 1.815,-66.092 h 83.061 v 66.092 z"
   id="path2" />&#10;		<path
   d="m 318.768,135.934 c 2.351,2.477 5.888,3.9 9.706,3.9 2.787,0 5.533,-0.759 7.821,-2.146 0.298,0.037 0.601,0.065 0.927,0.065 h 104.623 c 3.647,0 6.843,-1.272 9.082,-3.541 0.118,-0.098 0.229,-0.204 0.408,-0.379 l 0.351,-0.372 c 2.407,-2.395 3.681,-5.585 3.681,-9.233 V 32.363 c 0,-5.255 -2.489,-8.397 -4.672,-10.131 -1.738,-2.179 -4.876,-4.671 -10.127,-4.671 H 330.841 c -4.35,0 -8.062,1.787 -10.445,5.022 -2.554,3.472 -3.35,8.287 -2.102,12.652 -0.134,30.633 -1.032,61.388 -2.668,91.404 -0.2,3.701 0.886,6.912 3.142,9.295 z m 24.675,-25.231 c 0.996,-21.979 1.607,-44.194 1.815,-66.096 h 83.061 v 66.096 z"
   id="path3" />&#10;		<path
   d="m 313.239,211.748 c 1.412,1.489 3.517,2.342 5.777,2.342 1.521,0 3.023,-0.388 4.312,-1.102 0.086,0.004 0.171,0.008 0.261,0.008 h 54.66 c 2.171,0 4.08,-0.763 5.517,-2.208 l -1.444,-1.44 1.762,1.122 c 1.444,-1.44 2.208,-3.346 2.208,-5.516 v -47.989 c 0,-2.432 -0.963,-4.541 -2.722,-5.989 -1.444,-1.754 -3.558,-2.717 -5.981,-2.717 h -57.332 c -2.591,0 -4.811,1.073 -6.246,3.023 -1.481,2.012 -1.963,4.786 -1.285,7.312 -0.074,15.937 -0.539,31.942 -1.392,47.573 -0.118,2.211 0.538,4.137 1.905,5.581 z m 14.618,-14.827 c 0.481,-10.873 0.779,-21.816 0.894,-32.583 h 41.461 v 32.583 z"
   id="path4" />&#10;		<path
   d="m 80.533,188.525 c 1.412,1.489 3.517,2.342 5.777,2.342 1.522,0 3.023,-0.388 4.309,-1.102 0.085,0.004 0.171,0.008 0.261,0.008 h 54.664 c 2.171,0 4.076,-0.763 5.516,-2.208 l -1.444,-1.44 1.763,1.122 c 1.444,-1.436 2.211,-3.341 2.211,-5.516 v -47.985 c 0,-2.432 -0.963,-4.545 -2.721,-5.989 -1.444,-1.754 -3.558,-2.717 -5.981,-2.717 h -57.34 c -2.591,0 -4.811,1.073 -6.242,3.023 -1.481,2.011 -1.963,4.786 -1.286,7.311 -0.073,15.949 -0.542,31.955 -1.391,47.573 -0.124,2.208 0.537,4.137 1.904,5.578 z m 14.618,-14.823 c 0.478,-10.833 0.779,-21.775 0.894,-32.583 h 41.461 v 32.583 z"
   id="path5" />&#10;		<path
   d="m 232.084,63.489 c 1.412,1.489 3.517,2.346 5.777,2.346 1.522,0 3.023,-0.388 4.309,-1.102 0.085,0.004 0.171,0.008 0.261,0.008 h 54.66 c 2.17,0 4.08,-0.767 5.516,-2.211 l -1.444,-1.436 v 0 l 1.763,1.122 c 1.444,-1.44 2.207,-3.341 2.207,-5.516 V 8.707 c 0,-2.428 -0.963,-4.537 -2.721,-5.985 C 300.967,0.963 298.854,0 296.426,0 h -57.328 c -2.591,0 -4.811,1.073 -6.243,3.023 -1.481,2.012 -1.962,4.786 -1.285,7.312 -0.073,15.94 -0.542,31.946 -1.391,47.577 -0.122,2.207 0.539,4.133 1.905,5.577 z m 14.619,-14.827 c 0.481,-10.869 0.779,-21.812 0.894,-32.583 h 41.457 v 32.583 z"
   id="path6" />&#10;		<path
   d="m 165.193,71.853 c 1.134,1.2 2.819,1.885 4.623,1.885 1.151,0 2.289,-0.277 3.28,-0.795 h 40.029 c 1.738,0 3.268,-0.612 4.305,-1.665 l 0.351,-0.343 c 1.159,-1.159 1.775,-2.689 1.775,-4.418 V 31.42 c 0,-1.926 -0.763,-3.607 -2.15,-4.766 -1.159,-1.387 -2.84,-2.146 -4.762,-2.146 h -41.922 c -2.073,0 -3.852,0.865 -5.01,2.436 -1.167,1.587 -1.554,3.758 -1.044,5.745 -0.053,11.591 -0.396,23.26 -1.016,34.68 -0.099,1.767 0.435,3.317 1.541,4.484 z M 176.85,60.086 c 0.33,-7.573 0.539,-15.202 0.624,-22.726 h 29.221 v 22.726 z"
   id="path7" />&#10;		<path
   d="m 511.372,102.461 h -41.918 c -2.072,0 -3.852,0.865 -5.006,2.432 -1.171,1.587 -1.559,3.762 -1.049,5.745 -0.053,11.624 -0.396,23.289 -1.016,34.688 -0.098,1.767 0.437,3.313 1.542,4.484 1.135,1.2 2.819,1.889 4.623,1.889 1.146,0 2.284,-0.277 3.271,-0.795 h 40.037 c 1.738,0 3.272,-0.616 4.174,-1.571 l 0.478,-0.437 c 1.163,-1.154 1.779,-2.685 1.779,-4.418 v -35.096 c 0,-1.926 -0.764,-3.611 -2.15,-4.766 -1.162,-1.396 -2.843,-2.155 -4.765,-2.155 z m -5.94,12.852 v 22.729 h -29.845 c 0.33,-7.573 0.538,-15.202 0.624,-22.729 z"
   id="path8" />&#10;		<path
   d="m 487.871,378.18 c 3.611,-2.379 5.594,-6.206 5.594,-10.812 v -88.609 h 27.304 c 3.647,0 6.842,-1.273 9.082,-3.541 0.118,-0.098 0.229,-0.204 0.408,-0.38 l 0.354,-0.371 c 2.407,-2.395 3.677,-5.585 3.677,-9.233 v -91.861 c 0,-5.255 -2.489,-8.396 -4.672,-10.13 -1.738,-2.179 -4.876,-4.668 -10.127,-4.668 H 409.764 c -4.349,0 -8.062,1.787 -10.448,5.022 -2.555,3.468 -3.35,8.287 -2.102,12.652 -0.135,30.633 -1.032,61.384 -2.668,91.4 -0.2,3.697 0.885,6.908 3.142,9.291 2.35,2.477 5.887,3.9 9.706,3.9 2.786,0 5.532,-0.759 7.825,-2.146 0.298,0.037 0.6,0.065 0.922,0.065 h 50.271 v 79.393 c -27.019,6.227 -53.954,12.812 -80.128,19.58 v -26.781 h 35.896 c 2.175,0 4.08,-0.767 5.52,-2.211 l -1.448,-1.437 v 0 l 1.763,1.122 c 1.444,-1.44 2.207,-3.346 2.207,-5.516 v -47.997 c 0,-2.424 -0.963,-4.538 -2.721,-5.986 -1.444,-1.758 -3.558,-2.721 -5.985,-2.721 h -57.32 c -2.591,0 -4.811,1.073 -6.242,3.019 -1.485,2.016 -1.967,4.794 -1.285,7.32 -0.073,15.937 -0.539,31.942 -1.392,47.572 -0.122,2.208 0.539,4.138 1.905,5.577 0.579,0.612 1.294,1.082 2.068,1.465 v 54.358 H 295.386 V 346.12 h 34.224 c 3.647,0 6.838,-1.273 9.082,-3.538 0.118,-0.098 0.229,-0.203 0.408,-0.379 l 0.354,-0.376 c 2.407,-2.395 3.676,-5.585 3.676,-9.232 v -91.861 c 0,-5.251 -2.488,-8.393 -4.671,-10.126 -1.738,-2.179 -4.88,-4.672 -10.131,-4.672 h -109.72 c -4.35,0 -8.062,1.787 -10.449,5.022 -2.554,3.472 -3.35,8.287 -2.101,12.652 -0.135,30.628 -1.032,61.383 -2.668,91.404 -0.2,3.697 0.886,6.908 3.142,9.29 2.35,2.478 5.888,3.901 9.703,3.901 0.787,0 1.57,-0.078 2.342,-0.196 v 68.156 c 0,3.187 0.938,5.965 2.791,8.254 2.183,4.565 6.426,7.181 11.693,7.181 h 35.276 v 18.385 l -23.562,18.123 c -0.869,0.058 -1.722,0.217 -2.46,0.449 -0.706,0.062 -1.432,0.184 -2.211,0.375 -21.036,-8.213 -42.028,-17.132 -62.42,-26.536 v -33.762 h 3.305 c 2.174,0 4.08,-0.768 5.516,-2.212 l -1.449,-1.436 v 0 l 1.759,1.122 c 1.444,-1.437 2.211,-3.342 2.211,-5.517 v -47.989 c 0,-2.427 -0.962,-4.536 -2.721,-5.981 -1.444,-1.762 -3.558,-2.725 -5.985,-2.725 h -57.324 c -2.591,0 -4.807,1.072 -6.243,3.019 -1.485,2.016 -1.966,4.794 -1.285,7.319 -0.073,15.937 -0.542,31.942 -1.391,47.573 -0.123,2.207 0.539,4.137 1.905,5.577 1.412,1.489 3.517,2.342 5.777,2.342 1.521,0 3.023,-0.388 4.312,-1.102 0.085,0.004 0.171,0.009 0.257,0.009 h 24.313 v 41.979 c 0,2.473 0.608,4.766 1.701,6.598 1.155,2.628 3.228,4.655 6.161,6.03 22.914,10.723 46.981,21.04 71.559,30.678 v 81.094 c 0,8.629 6.802,13.15 13.521,13.15 6.719,0 13.521,-4.517 13.521,-13.15 v -80.869 l 25.431,-18.16 c 7.03,-0.372 12.843,-6.402 12.843,-13.51 0,-0.645 -0.069,-1.269 -0.167,-1.885 0.09,-0.624 0.167,-1.256 0.167,-1.946 v -26.087 h 75.472 c 3.19,0 5.97,-0.935 8.258,-2.791 4.57,-2.179 7.182,-6.422 7.182,-11.689 v -12.411 c 31.673,-8.274 63.407,-16.042 94.342,-23.084 3.061,-0.692 5.493,-2.173 7.239,-4.4 z m -65.5,-126.468 c 0.995,-22.041 1.607,-44.256 1.815,-66.096 h 83.061 v 66.096 z m -50.576,83.158 c 0.481,-10.873 0.779,-21.815 0.894,-32.583 h 41.461 v 32.583 z m -126.169,11.249 h 22.713 v 58.438 h -22.713 z m 70.457,-93.139 v 66.092 h -84.872 c 0.996,-22.036 1.607,-44.255 1.815,-66.092 z M 172.949,392.562 h -3.435 c -1.702,-0.661 -3.521,-1.024 -5.349,-1.024 -1.828,0 -3.647,0.363 -5.349,1.024 h -28.217 c 0.477,-10.832 0.779,-21.775 0.894,-32.583 h 41.461 v 32.583 z"
   id="path9" />&#10;	</g>&#10;</g></g></g><metadata
     id="metadata1"><rdf:RDF><cc:Work
         rdf:about=""><dc:title>Third bracket</dc:title><dc:creator><cc:Agent><dc:title>Musabbir Sagar</dc:title></cc:Agent></dc:creator><dc:source>www.musabbirsagar.com</dc:source></cc:Work></rdf:RDF></metadata></svg>
