<?xml version="1.0" encoding="UTF-8" standalone="no"?>
<!-- Created with Inkscape (http://www.inkscape.org/) -->

<svg
   width="1080"
   height="1080"
   viewBox="0 0 24 24"
   version="1.1"
   id="svg1"
   xml:space="preserve"
   inkscape:export-filename="4.svg"
   inkscape:export-xdpi="88.888885"
   inkscape:export-ydpi="88.888885"
   xmlns:inkscape="http://www.inkscape.org/namespaces/inkscape"
   xmlns:sodipodi="http://sodipodi.sourceforge.net/DTD/sodipodi-0.dtd"
   xmlns="http://www.w3.org/2000/svg"
   xmlns:svg="http://www.w3.org/2000/svg"
   xmlns:rdf="http://www.w3.org/1999/02/22-rdf-syntax-ns#"
   xmlns:cc="http://creativecommons.org/ns#"
   xmlns:dc="http://purl.org/dc/elements/1.1/"><title
     id="title1">Third bracket</title><sodipodi:namedview
     id="namedview1"
     pagecolor="#ffffff"
     bordercolor="#cccccc"
     borderopacity="1"
     inkscape:showpageshadow="0"
     inkscape:pageopacity="1"
     inkscape:pagecheckerboard="0"
     inkscape:deskcolor="#d1d1d1"
     inkscape:document-units="px" /><defs
     id="defs1" /><g
     inkscape:label="Layer 1"
     inkscape:groupmode="layer"
     id="layer1"><g
       style="fill:#000000"
       id="g7"
       transform="matrix(0.03040966,0,0,0.03040966,3.0571029,3.5459852)"><path
         fill="#000000"
         fill-opacity="1"
         stroke-width="2.0317"
         stroke-linejoin="round"
         d="M 90.911513,112.45887 354.2788,74.834978 497.25008,150.08278 V 443.54965 L 241.40709,481.17353 90.911513,390.87593 Z"
         id="path1" /></g><g
       style="fill:#000000;stroke:#000000;stroke-width:0.00256"
       id="g8"
       transform="matrix(0.12435824,0,0,0.12435824,-3.9178547,-3.9178547)"><g
         id="SVGRepo_iconCarrier"><path
           d="m 48,48 v 160 h 32 a 8,8 0 0 1 0,16 H 40 a 8.00039,8.00039 0 0 1 -8,-8 V 40 a 8.00039,8.00039 0 0 1 8,-8 h 40 a 8,8 0 0 1 0,16 z M 216,32 h -40 a 8,8 0 0 0 0,16 h 32 v 160 h -32 a 8,8 0 0 0 0,16 h 40 a 8.00039,8.00039 0 0 0 8,-8 V 40 a 8.00039,8.00039 0 0 0 -8,-8 z"
           id="path1-0" /></g></g></g><metadata
     id="metadata1"><rdf:RDF><cc:Work
         rdf:about=""><dc:title>Third bracket</dc:title><dc:creator><cc:Agent><dc:title>Musabbir Sagar</dc:title></cc:Agent></dc:creator><dc:source>www.musabbirsagar.com</dc:source></cc:Work></rdf:RDF></metadata></svg>
