<!DOCTYPE svg PUBLIC "-//W3C//DTD SVG 1.1//EN" "http://www.w3.org/Graphics/SVG/1.1/DTD/svg11.dtd">

<!-- Uploaded to: SVG Repo, www.svgrepo.com, Transformed by: SVG Repo Mixer Tools -->
<svg fill="#374151" xmlns="http://www.w3.org/2000/svg" width="256px" height="256px" viewBox="0 0 52 52" enable-background="new 0 0 52 52" xml:space="preserve" stroke="#374151">

<g id="SVGRepo_bgCarrier" stroke-width="0"/>

<g id="SVGRepo_tracerCarrier" stroke-linecap="round" stroke-linejoin="round"/>

<g id="SVGRepo_iconCarrier"> <path d="M46.5,14h-41C4.7,14,4,13.3,4,12.5v-3C4,8.7,4.7,8,5.5,8h41C47.3,8,48,8.7,48,9.5v3C48,13.3,47.3,14,46.5,14 z"/> <path d="M46.5,28.9h-41c-0.8,0-1.5-0.7-1.5-1.5v-3C4,23.7,4.7,23,5.5,23h41c0.8,0,1.5,0.7,1.5,1.5v3 C48,28.2,47.3,28.9,46.5,28.9z"/> <path d="M46.5,44h-41C4.7,44,4,43.3,4,42.5v-3C4,38.7,4.7,38,5.5,38h41c0.8,0,1.5,0.7,1.5,1.5v3 C48,43.3,47.3,44,46.5,44z"/> </g>

</svg>