<?xml version="1.0" encoding="UTF-8" standalone="no"?>
<!-- Created with Inkscape (http://www.inkscape.org/) -->

<svg
   width="1080px"
   
   height="1080px"
   viewBox="20 20 1000 1000"
   version="1.1"
   id="svg1"
   xml:space="preserve"
   xmlns:inkscape="http://www.inkscape.org/namespaces/inkscape"
   xmlns:sodipodi="http://sodipodi.sourceforge.net/DTD/sodipodi-0.dtd"
   xmlns="http://www.w3.org/2000/svg"
   xmlns:svg="http://www.w3.org/2000/svg">
   <sodipodi:namedview
     id="namedview1"
     pagecolor="none"
     bordercolor="none"
     borderopacity="1"
     fill="none"
     inkscape:showpageshadow="0"
     inkscape:pageopacity="1"
     inkscape:pagecheckerboard="0"
     inkscape:deskcolor="#d1d1d1"
     inkscape:document-units="mm" />
     <defs
     id="defs1" /><g
     inkscape:label="Layer 1"
     inkscape:groupmode="layer"
     id="layer1"><g
       style="fill:#73E2B8"
       id="g1"
       transform="matrix(5.1667052,0,0,5.1667052,-141.33827,-141.33827)"><path
         d="m 48,48 v 160 h 32 a 8,8 0 0 1 0,16 H 40 a 8.00039,8.00039 0 0 1 -8,-8 V 40 a 8.00039,8.00039 0 0 1 8,-8 h 40 a 8,8 0 0 1 0,16 z M 216,32 h -40 a 8,8 0 0 0 0,16 h 32 v 160 h -32 a 8,8 0 0 0 0,16 h 40 a 8.00039,8.00039 0 0 0 8,-8 V 40 a 8.00039,8.00039 0 0 0 -8,-8 z"
         id="path1" /></g><g
       style="fill:none"
       id="g2"
       transform="matrix(35.46536,0,0,35.46536,94.41568,94.41568)"><path
         d="m 8,5 h 2 V 7 H 8 Z M 6,7 H 8 V 9 H 6 Z M 4,9 h 2 v 2 H 4 Z m -2,2 h 2 v 2 H 2 Z m 2,2 h 2 v 2 H 4 Z m 2,2 h 2 v 2 H 6 Z m 2,2 h 2 v 2 H 8 Z M 16,5 h -2 v 2 h 2 z m 2,2 h -2 v 2 h 2 z m 2,2 h -2 v 2 h 2 z m 2,2 h -2 v 2 h 2 z m -2,2 h -2 v 2 h 2 z m -2,2 h -2 v 2 h 2 z m -2,2 h -2 v 2 h 2 z"
         fill="#3ACD9A "
         id="path1-5" /></g></g></svg>
