<!DOCTYPE svg PUBLIC "-//W3C//DTD SVG 1.1//EN" "http://www.w3.org/Graphics/SVG/1.1/DTD/svg11.dtd">

<!-- Uploaded to: SVG Repo, www.svgrepo.com, Transformed by: SVG Repo Mixer Tools -->
<!-- <svg fill="#000000" width="256px" height="256px" viewBox="0 0 24 24" id="bracket-square" data-name="Flat Color" xmlns="http://www.w3.org/2000/svg" class="icon flat-color" stroke="#000000">

<g id="SVGRepo_bgCarrier" stroke-width="0"/>

<g id="SVGRepo_tracerCarrier" stroke-linecap="round" stroke-linejoin="round"/>

<g id="SVGRepo_iconCarrier">

<rect id="primary" x="2" y="2" width="20" height="20" rx="2" style="fill: #3ACD9A;"/>

<path id="secondary" d="M16,18H14a1,1,0,0,1,0-2h2V8H14a1,1,0,0,1,0-2h2a2,2,0,0,1,2,2v8A2,2,0,0,1,16,18Zm-5-1a1,1,0,0,0-1-1H8V8h2a1,1,0,0,0,0-2H8A2,2,0,0,0,6,8v8a2,2,0,0,0,2,2h2A1,1,0,0,0,11,17Z" style="fill: #3ACD9A;"/>

</g>

</svg> -->


<svg
      xmlns="http://www.w3.org/2000/svg"
      width="36"
      height="36"
      fill="#0B9069"
      stroke="#0B9069"
      
      className="icon flat-color"
      data-name="Flat Color"
      viewBox="0 0 24 24"
    >
      <g fill="transparent">
        <rect width="20" height="20" x="2" y="2" rx="2"></rect>
        <path d="M16 18h-2a1 1 0 010-2h2V8h-2a1 1 0 010-2h2a2 2 0 012 2v8a2 2 0 01-2 2zm-5-1a1 1 0 00-1-1H8V8h2a1 1 0 000-2H8a2 2 0 00-2 2v8a2 2 0 002 2h2a1 1 0 001-1z"></path>
      </g>
    </svg>