<!DOCTYPE svg PUBLIC "-//W3C//DTD SVG 1.1//EN" "http://www.w3.org/Graphics/SVG/1.1/DTD/svg11.dtd">
<!-- Uploaded to: SVG Repo, www.svgrepo.com, Transformed by: SVG Repo Mixer Tools -->
<svg fill="#131519" width="256px" height="256px" viewBox="0 0 24 24" id="bracket-square" data-name="Flat Color" xmlns="http://www.w3.org/2000/svg" class="icon flat-color" stroke="#131519" stroke-width="1.176">
<g id="SVGRepo_bgCarrier" stroke-width="0"/>
<g id="SVGRepo_tracerCarrier" stroke-linecap="round" stroke-linejoin="round"/>
<g id="SVGRepo_iconCarrier">
<rect id="primary" x="2" y="2" width="20" height="20" rx="2" style="fill: #131519;"/>
<path id="secondary" d="M16,18H14a1,1,0,0,1,0-2h2V8H14a1,1,0,0,1,0-2h2a2,2,0,0,1,2,2v8A2,2,0,0,1,16,18Zm-5-1a1,1,0,0,0-1-1H8V8h2a1,1,0,0,0,0-2H8A2,2,0,0,0,6,8v8a2,2,0,0,0,2,2h2A1,1,0,0,0,11,17Z" style="fill: #73E2B8;"/>
</g>
</svg>