<?xml version="1.0" encoding="UTF-8" standalone="no"?>
<svg
   data-name="Layer 1"
   viewBox="0 0 500 500"
   x="0px"
   y="0px"
   version="1.1"
   id="svg3"
   sodipodi:docname="noun-brackets-4935926.svg"
   width="500"
   height="500"
   xml:space="preserve"
   inkscape:export-filename="new.png"
   inkscape:export-xdpi="96"
   inkscape:export-ydpi="96"
   xmlns:inkscape="http://www.inkscape.org/namespaces/inkscape"
   xmlns:sodipodi="http://sodipodi.sourceforge.net/DTD/sodipodi-0.dtd"
   xmlns="http://www.w3.org/2000/svg"
   xmlns:svg="http://www.w3.org/2000/svg"
   xmlns:rdf="http://www.w3.org/1999/02/22-rdf-syntax-ns#"
   xmlns:cc="http://creativecommons.org/ns#"
   xmlns:dc="http://purl.org/dc/elements/1.1/"><defs
     id="defs3" /><sodipodi:namedview
     id="namedview3"
     pagecolor="#ffffff"
     bordercolor="#cccccc"
     borderopacity="1"
     inkscape:showpageshadow="0"
     inkscape:pageopacity="1"
     inkscape:pagecheckerboard="0"
     inkscape:deskcolor="#d1d1d1" /><title
     id="title1">Brackets Icon 1</title><metadata
     id="metadata3"><rdf:RDF><cc:Work
         rdf:about=""><dc:title>Brackets Icon 1</dc:title></cc:Work></rdf:RDF></metadata><g
     id="g6"><g
       style="fill:none"
       id="g4"
       transform="matrix(16.481147,0,0,16.481147,52.226236,52.226236)"><path
         d="m 8,5 h 2 V 7 H 8 Z M 6,7 H 8 V 9 H 6 Z M 4,9 h 2 v 2 H 4 Z m -2,2 h 2 v 2 H 2 Z m 2,2 h 2 v 2 H 4 Z m 2,2 h 2 v 2 H 6 Z m 2,2 h 2 v 2 H 8 Z M 16,5 h -2 v 2 h 2 z m 2,2 h -2 v 2 h 2 z m 2,2 h -2 v 2 h 2 z m 2,2 h -2 v 2 h 2 z m -2,2 h -2 v 2 h 2 z m -2,2 h -2 v 2 h 2 z m -2,2 h -2 v 2 h 2 z"
         fill="#000000"
         id="path1-5" /></g><g
       id="g5"
       transform="translate(-0.4442336,0.69821598)"><polygon
         points="0,118.5 40.398,118.5 35.011,107.727 10.773,107.727 10.773,10.773 35.011,10.773 40.398,0 0,0 "
         id="polygon1"
         transform="matrix(4.1324321,0,0,4.1324321,5.3532972,4.455811)" /><polygon
         points="0,0 0,118.5 40.398,118.5 35.011,107.727 10.773,107.727 10.773,10.773 35.011,10.773 40.398,0 "
         id="polygon1-9"
         transform="matrix(-4.1324321,0,0,4.1324321,495.53517,4.4545532)" /></g></g></svg>
