<?xml version="1.0" standalone="no"?>
<!DOCTYPE svg PUBLIC "-//W3C//DTD SVG 20010904//EN"
 "http://www.w3.org/TR/2001/REC-SVG-20010904/DTD/svg10.dtd">
<svg version="1.0" xmlns="http://www.w3.org/2000/svg"
 width="1213.000000pt" height="1213.000000pt" viewBox="0 0 1213.000000 1213.000000"
 preserveAspectRatio="xMidYMid meet">
<metadata>
Created by potrace 1.14, written by Peter Selinger 2001-2017
</metadata>
<g transform="translate(0.000000,1213.000000) scale(0.100000,-0.100000)"
fill="#000000" stroke="none">
<path d="M195 12080 c-4 -6 -14 -10 -23 -9 -10 1 -45 1 -78 0 l-62 -1 -1 -362
c0 -200 -1 -364 -1 -365 -3 -10 -2 -125 1 -128 2 -2 2 -56 -1 -120 -3 -64 -3
-118 0 -120 3 -2 3 -56 0 -120 -3 -64 -3 -118 0 -120 3 -2 3 -56 0 -120 -3
-64 -3 -118 0 -120 3 -2 3 -56 0 -120 -3 -64 -3 -118 0 -120 3 -2 3 -56 0
-120 -3 -64 -3 -118 0 -120 3 -2 3 -56 0 -120 -3 -64 -3 -118 0 -120 3 -2 3
-56 0 -120 -3 -64 -3 -118 0 -120 3 -2 3 -56 0 -120 -3 -64 -3 -118 -1 -121 6
-5 1 -183 -6 -200 -3 -8 -10 -11 -16 -7 -6 4 -7 1 -2 -7 13 -21 15 -121 2
-113 -6 4 -7 1 -2 -7 13 -21 15 -121 2 -113 -6 4 -7 1 -2 -7 13 -21 15 -121 2
-113 -6 4 -7 1 -2 -7 13 -21 15 -121 2 -113 -6 4 -7 1 -1 -8 12 -19 12 -7919
0 -7912 -5 4 -6 0 -1 -7 14 -22 15 -121 1 -113 -8 5 -8 3 0 -8 7 -9 10 -103 9
-267 0 -144 4 -256 9 -259 11 -8 12074 -8 12081 -1 3 3 5 149 5 326 0 246 3
322 13 325 9 4 9 6 0 6 -17 1 -17 122 0 140 9 11 9 13 0 7 -10 -6 -13 18 -13
106 0 77 4 118 13 127 10 11 10 13 0 7 -19 -10 -19 374 0 393 10 11 10 13 0 7
-10 -6 -13 18 -13 106 0 77 4 118 13 127 9 11 9 12 0 7 -18 -10 -17 852 0 873
9 12 9 13 0 7 -10 -6 -13 18 -13 106 0 77 4 118 13 127 9 11 9 13 0 7 -18 -10
-18 214 0 233 9 11 9 13 0 7 -18 -10 -18 214 0 233 9 11 9 13 0 7 -10 -6 -13
18 -13 106 0 77 4 118 13 127 10 11 10 13 0 7 -18 -10 -18 214 0 233 8 10 9
12 0 7 -17 -10 -17 1332 0 1353 9 12 9 13 0 7 -18 -10 -18 214 0 233 10 11 10
13 0 7 -18 -10 -18 214 0 233 9 11 9 13 0 7 -18 -10 -18 214 0 233 10 11 10
13 0 7 -10 -6 -13 18 -13 106 0 77 4 118 13 127 10 11 10 13 0 7 -18 -10 -18
214 0 233 8 10 9 12 0 7 -17 -10 -17 1332 0 1353 9 12 9 13 0 7 -10 -6 -13 18
-13 106 0 77 4 118 13 127 10 11 10 13 0 7 -18 -10 -18 214 0 233 10 11 10 13
0 7 -18 -10 -18 214 0 233 10 11 10 13 0 7 -10 -6 -13 18 -13 106 0 77 4 118
13 127 10 11 10 13 0 7 -10 -6 -13 19 -13 108 0 86 3 116 13 116 9 0 9 2 -1 9
-10 6 -13 32 -10 103 2 77 0 95 -11 94 -12 -1 -14 43 -15 257 -1 141 2 257 7
257 4 0 7 5 7 11 0 5 -3 8 -7 6 -5 -3 -8 64 -8 149 0 85 3 154 8 154 4 0 7 5
7 11 0 5 -3 8 -7 6 -5 -3 -8 73 -8 169 0 148 2 174 15 175 10 0 8 3 -5 9 -11
5 -14 9 -7 9 6 1 12 6 12 12 0 5 -5 7 -10 4 -14 -9 -12 8 3 24 6 8 7 11 1 8
-13 -7 -12 62 1 83 5 7 4 11 -1 8 -12 -8 -11 452 1 471 4 8 4 12 -1 9 -5 -4
-9 226 -9 563 1 566 1 569 -20 570 -11 0 -2685 0 -5942 1 -3503 0 -5921 4
-5917 9 3 5 3 9 0 9 -3 0 -8 -5 -11 -10z m1940 -5070 c-3 -5 -2 -10 4 -10 5 0
12 3 14 8 3 4 31 6 64 5 43 -1 57 -5 55 -15 -1 -7 5 -4 13 6 8 11 15 14 15 7
0 -7 5 -9 12 -5 15 9 58 12 58 3 0 -3 7 -6 15 -6 8 0 15 3 15 6 0 9 93 6 108
-3 7 -4 12 -3 12 3 0 6 11 6 30 1 19 -5 30 -5 30 1 0 6 5 7 10 4 6 -4 8 -12 4
-18 -3 -7 2 -3 10 7 9 11 16 14 16 7 0 -7 5 -9 12 -5 16 10 548 11 548 2 0 -4
10 -4 23 0 28 10 78 9 95 -1 6 -5 12 -5 12 0 0 4 23 8 50 8 28 0 50 -4 50 -8
0 -5 5 -5 12 -1 17 10 238 11 238 1 0 -5 5 -5 12 -1 18 11 88 11 88 0 0 -6 5
-5 12 2 9 9 15 7 25 -6 8 -9 12 -12 9 -5 -4 6 -2 14 4 18 5 3 10 1 10 -5 0 -6
5 -8 12 -4 15 10 247 11 241 2 -2 -5 0 -8 6 -8 5 0 13 5 16 11 5 6 12 4 21 -8
9 -12 13 -13 12 -4 -3 15 38 21 60 7 6 -4 12 -4 12 1 0 4 18 8 40 8 22 0 40
-4 40 -10 0 -5 5 -4 12 3 7 7 17 8 30 1 13 -7 18 -6 18 3 0 10 2 10 9 -1 6
-10 10 -10 16 -1 5 8 12 7 26 -6 11 -9 22 -14 26 -11 3 4 1 7 -5 7 -7 0 -12 3
-12 8 0 4 11 7 25 7 14 0 25 -3 25 -7 0 -7 39 -2 48 7 3 2 11 -3 19 -13 8 -9
12 -12 9 -6 -7 14 16 25 30 16 6 -4 11 -24 12 -45 3 -36 2 -38 -20 -27 l-23
11 23 -20 c17 -15 22 -30 22 -68 0 -35 -3 -44 -10 -33 -6 9 -10 10 -10 3 0 -6
4 -14 9 -18 5 -3 10 -50 10 -106 1 -77 -2 -98 -12 -93 -9 5 -9 4 1 -7 17 -19
17 -399 0 -418 -10 -11 -10 -13 0 -7 9 5 12 -10 12 -66 0 -45 -5 -79 -12 -87
-10 -11 -10 -13 0 -7 17 10 17 -135 0 -153 -10 -11 -10 -13 0 -7 18 10 18
-1414 0 -1433 -10 -11 -10 -13 0 -7 9 5 12 -10 12 -66 0 -45 -5 -79 -12 -87
-10 -11 -10 -13 0 -7 17 10 17 -135 0 -153 -10 -11 -10 -13 0 -7 17 10 17
-135 0 -153 -11 -11 -10 -13 0 -7 10 6 12 -158 12 -818 0 -647 -3 -826 -13
-826 -8 0 -7 -4 3 -10 13 -9 13 -11 0 -20 -10 -6 -11 -10 -2 -10 6 0 12 -12
12 -26 0 -17 -4 -23 -12 -18 -7 4 -10 4 -6 -1 4 -4 2 -15 -5 -24 -11 -14 -10
-14 6 -2 14 11 17 11 17 -1 0 -8 -6 -20 -12 -27 -10 -11 -10 -13 0 -7 6 4 12
2 12 -3 0 -6 -6 -11 -12 -11 -9 0 -8 -4 2 -10 18 -12 18 -11 -42 -14 -29 -2
-48 2 -48 8 0 7 -3 8 -8 1 -9 -12 -85 -18 -77 -5 3 5 1 12 -5 15 -6 4 -9 1 -8
-7 2 -10 -102 -13 -557 -13 -378 -1 -565 2 -574 9 -9 7 -12 7 -9 1 8 -13 -881
-14 -901 -1 -9 6 -12 5 -8 -1 4 -7 -5 -10 -23 -9 -28 1 -35 8 -31 29 1 5 -3 6
-8 2 -6 -3 -8 -11 -5 -19 8 -22 -58 -13 -68 10 -7 17 -8 16 -4 -3 5 -26 -3
-29 -23 -11 -8 7 -11 8 -8 3 3 -7 -5 -11 -20 -10 l-27 0 -2 99 c-3 93 -2 98
16 93 11 -3 18 -1 14 4 -3 5 -11 9 -18 9 -18 0 -20 88 -3 109 10 12 9 13 -1 7
-10 -6 -13 1 -10 30 2 30 7 39 20 38 10 -1 15 3 12 8 -3 5 -13 7 -21 4 -11 -5
-14 2 -11 32 2 27 8 37 20 37 9 0 20 3 23 7 4 3 -5 5 -19 4 -23 -3 -26 0 -26
30 0 20 7 37 18 44 12 8 13 10 1 7 -12 -4 -15 5 -16 44 -1 27 2 47 7 44 5 -3
12 -1 15 5 4 6 1 9 -6 8 -6 -2 -13 10 -15 27 -4 28 -3 29 11 11 8 -11 15 -15
15 -9 0 6 -7 16 -15 23 -18 15 -21 65 -3 54 7 -5 8 -3 2 7 -14 24 -12 63 5 84
15 18 15 19 -1 6 -15 -11 -18 -11 -18 1 0 8 6 20 13 27 8 10 8 12 0 7 -16 -9
-15 73 1 93 8 11 8 13 0 8 -16 -9 -16 133 -1 152 8 9 8 12 1 8 -7 -4 -11 16
-11 63 0 49 3 68 11 63 8 -5 8 -3 0 8 -16 21 -19 123 -3 114 8 -6 10 -4 3 6
-14 24 -12 63 5 84 15 18 15 19 -1 6 -15 -11 -18 -11 -18 1 0 8 6 20 13 27 8
10 8 12 0 7 -16 -9 -15 73 1 93 8 11 8 13 0 8 -16 -9 -16 133 -1 152 8 9 8 12
1 8 -7 -4 -11 16 -11 63 0 49 3 68 11 63 8 -5 8 -3 0 8 -16 21 -19 123 -3 114
8 -6 10 -4 3 6 -14 24 -12 63 5 84 15 18 15 19 -1 6 -15 -11 -18 -11 -18 1 0
8 6 20 13 27 8 10 8 12 0 7 -16 -9 -15 73 1 93 7 10 7 13 0 8 -7 -4 -11 5 -12
24 0 16 3 27 8 24 5 -3 12 -1 15 5 4 6 1 9 -6 8 -8 -2 -13 16 -15 55 -3 42 -1
56 8 51 7 -5 8 -3 2 7 -13 21 -15 161 -2 153 7 -5 8 -2 2 7 -13 21 -16 81 -3
73 6 -3 5 3 -3 15 -11 17 -11 25 0 42 8 12 9 19 4 15 -5 -3 -9 25 -9 64 0 49
3 68 11 63 8 -5 8 -3 0 8 -16 21 -19 123 -3 114 8 -6 10 -4 3 6 -14 24 -12 63
5 84 15 18 15 19 -1 6 -15 -11 -18 -11 -18 1 0 8 6 20 13 27 8 10 8 12 0 7
-16 -9 -15 73 1 93 7 10 7 13 0 8 -7 -4 -11 5 -12 24 0 16 3 27 8 24 5 -3 12
-1 15 5 4 6 1 9 -6 8 -8 -2 -13 16 -15 55 -3 42 -1 56 8 51 7 -5 8 -3 2 7 -13
21 -15 161 -2 153 7 -5 8 -2 2 7 -11 19 -15 121 -4 114 5 -3 12 -1 15 5 4 6 1
9 -6 8 -6 -2 -13 10 -15 27 -4 28 -3 29 11 11 8 -11 15 -15 15 -9 0 6 -7 16
-15 23 -18 15 -21 65 -3 54 7 -5 8 -3 2 7 -14 24 -12 63 5 84 13 16 13 18 0 8
-13 -11 -15 -5 -16 47 0 38 3 57 10 53 6 -4 7 -1 1 8 -14 21 -14 501 0 518 8
11 8 13 -1 7 -20 -11 -16 34 4 56 15 17 15 20 0 35 -15 15 -15 17 0 28 13 10
13 14 3 20 -9 5 -11 4 -6 -3 4 -7 3 -12 -3 -12 -6 0 -9 20 -8 45 1 33 7 47 20
51 9 3 17 10 17 17 0 8 -3 8 -12 -1 -22 -22 -26 -13 -25 52 0 36 4 63 8 60 4
-2 10 0 14 6 3 5 8 10 11 10 3 0 2 -4 -1 -10z m5507 -27 c18 -2 20 -1 8 6 -8
5 -18 7 -22 5 -4 -3 -8 -1 -8 5 0 15 18 23 25 11 3 -5 11 -10 16 -10 6 0 8 4
5 8 -2 4 4 8 15 8 10 0 19 -4 19 -9 0 -4 6 -5 13 0 19 12 40 10 60 -6 16 -14
17 -13 11 5 -7 17 -6 17 9 5 14 -11 17 -11 17 0 0 12 2 12 9 0 6 -9 11 -10 15
-2 9 15 28 3 20 -12 -3 -7 2 -3 10 7 10 13 16 15 16 7 0 -10 3 -11 13 -2 16
13 30 3 19 -14 -4 -6 0 -3 9 7 14 14 19 15 28 4 6 -7 9 -15 6 -18 -3 -3 2 -11
12 -19 15 -12 16 -12 8 1 -20 33 -15 46 18 45 18 -1 38 -4 45 -9 7 -4 12 -2
12 6 0 10 2 10 9 -1 5 -7 11 -9 14 -4 7 11 37 11 55 -1 7 -4 12 -2 12 5 0 8 4
8 15 -1 12 -10 15 -10 15 0 0 10 3 10 15 0 12 -10 15 -10 16 1 0 11 2 11 6 1
4 -10 8 -10 19 -1 11 9 14 9 14 -1 0 -10 3 -10 15 0 12 10 15 10 15 0 0 -10 3
-10 15 0 12 10 15 10 15 -1 0 -10 3 -10 12 -1 8 8 15 9 25 1 10 -9 13 -8 13 1
0 10 3 10 15 0 12 -10 15 -10 15 0 0 10 3 10 15 0 12 -10 15 -10 15 0 0 10 3
10 15 0 8 -7 15 -9 15 -4 0 5 83 9 185 9 102 0 185 -4 185 -9 0 -5 7 -3 15 4
12 10 15 10 15 0 0 -10 3 -10 15 0 12 10 15 10 15 0 0 -10 3 -10 15 0 12 10
15 10 15 -1 0 -10 3 -10 12 -1 8 8 15 9 25 1 10 -9 13 -8 13 1 0 10 3 10 15 0
12 -10 15 -10 15 0 0 10 3 10 15 0 12 -10 15 -10 15 0 0 10 3 10 15 0 11 -9
15 -9 15 -1 0 7 5 9 10 6 6 -4 8 -10 5 -15 -3 -5 -1 -12 5 -15 6 -4 10 -3 9 2
-5 27 1 35 16 23 8 -7 15 -9 15 -4 0 5 43 9 95 9 52 0 95 -4 95 -9 0 -5 7 -3
15 4 12 10 15 10 15 0 0 -10 3 -10 14 -1 11 9 16 9 21 0 6 -8 10 -7 16 2 7 12
9 12 9 0 0 -10 3 -11 14 -2 11 9 16 9 21 0 6 -8 10 -7 16 2 7 12 9 12 9 0 0
-11 3 -11 15 -1 12 10 15 10 15 0 0 -10 3 -10 15 0 12 10 15 10 15 0 0 -10 3
-10 15 0 11 9 15 9 15 1 0 -7 5 -9 12 -5 17 11 169 11 175 0 3 -4 9 -2 14 5 7
12 9 12 9 0 0 -11 3 -11 15 -1 11 9 15 9 15 1 0 -7 5 -9 12 -5 18 11 48 12 48
2 0 -5 6 -6 13 -1 16 10 69 10 84 0 6 -4 14 -4 17 1 5 9 64 8 73 -2 3 -3 6
-50 7 -105 1 -80 -1 -98 -11 -89 -7 6 -10 15 -6 22 3 6 2 7 -2 3 -5 -4 -10
-15 -11 -23 -1 -9 0 -13 3 -10 4 3 12 1 19 -5 10 -8 11 -16 3 -30 -6 -13 -6
-19 0 -19 7 0 7 -9 1 -25 -6 -15 -6 -25 0 -25 9 0 5 -53 -5 -70 -3 -6 -1 -10
6 -10 8 0 9 -3 0 -13 -6 -8 -7 -17 -3 -21 11 -12 9 -115 -3 -108 -5 3 -4 -1 3
-10 9 -11 10 -18 2 -23 -6 -3 -7 -12 -3 -18 11 -18 10 -246 -1 -240 -5 4 -6 0
-1 -7 11 -18 14 -251 3 -272 -5 -10 -4 -19 2 -23 5 -3 10 -11 10 -16 0 -6 -5
-7 -12 -3 -7 5 -8 3 -3 -6 12 -19 14 -280 2 -273 -5 3 -4 -4 2 -15 14 -27 14
-35 -1 -26 -7 5 -8 3 -3 -6 11 -18 14 -251 3 -272 -5 -10 -4 -19 2 -23 5 -3
10 -11 10 -16 0 -6 -5 -7 -12 -3 -7 5 -8 3 -3 -6 12 -19 14 -280 2 -273 -5 3
-4 -4 2 -15 14 -27 14 -35 -1 -26 -7 5 -8 3 -3 -6 11 -18 14 -251 3 -272 -5
-10 -4 -19 2 -23 5 -3 10 -11 10 -16 0 -6 -5 -7 -12 -3 -7 5 -8 3 -3 -6 12
-19 14 -280 2 -273 -5 3 -4 -4 2 -15 14 -27 14 -35 -1 -26 -7 5 -8 3 -3 -6 11
-18 14 -251 3 -272 -5 -10 -4 -19 2 -23 5 -3 10 -11 10 -16 0 -6 -5 -7 -12 -3
-7 5 -8 3 -3 -6 12 -19 14 -280 2 -273 -5 3 -4 -4 2 -15 14 -27 14 -35 -1 -26
-7 5 -8 3 -3 -6 11 -18 14 -251 3 -272 -5 -10 -4 -19 2 -23 5 -3 10 -11 10
-16 0 -6 -5 -7 -12 -3 -7 5 -8 3 -3 -6 12 -19 14 -280 2 -273 -5 3 -4 -4 2
-15 14 -27 14 -35 -1 -26 -7 5 -8 3 -3 -7 10 -16 14 -319 4 -313 -9 5 -5 -23
4 -32 3 -4 2 -15 -3 -25 -7 -12 -7 -20 0 -24 8 -5 8 -11 0 -20 -8 -9 -8 -15 0
-20 14 -9 13 -28 -2 -19 -10 5 -10 4 -1 -6 8 -9 9 -19 3 -31 -6 -10 -6 -20 -1
-23 9 -6 7 -38 -4 -71 -4 -12 -3 -15 2 -8 4 6 8 -45 8 -117 0 -71 -3 -126 -6
-124 -4 2 -5 -4 -3 -13 4 -15 -2 -18 -33 -17 -21 0 -45 4 -52 9 -9 5 -12 4 -7
-3 4 -7 -1 -10 -14 -9 -19 1 -24 10 -21 30 1 5 -3 6 -8 2 -6 -3 -8 -11 -5 -18
3 -9 -29 -12 -131 -13 -75 -1 -135 3 -135 8 0 5 -6 6 -12 1 -7 -4 -299 -8
-648 -8 -559 0 -636 1 -642 15 -5 12 -7 12 -7 -2 -1 -24 -39 -24 -57 0 -10 12
-13 13 -9 2 8 -22 -181 -22 -196 0 -9 13 -10 13 -6 -1 5 -14 -3 -16 -51 -14
-39 1 -56 6 -54 14 1 7 -2 10 -8 6 -6 -3 -8 -10 -5 -14 2 -5 -20 -8 -50 -7
-30 0 -55 5 -55 11 0 7 -3 7 -8 0 -4 -5 -22 -11 -40 -11 -26 -2 -31 1 -22 11
8 10 8 15 -1 21 -7 4 -9 3 -5 -4 8 -13 -10 -25 -41 -28 l-24 -3 23 21 c23 19
23 19 -8 -1 -24 -16 -34 -18 -44 -8 -7 7 -10 7 -7 1 4 -6 -6 -10 -26 -9 -18 0
-32 3 -33 5 0 3 -6 15 -13 28 -10 18 -9 22 3 22 8 0 18 4 21 10 4 6 -1 7 -11
3 -12 -4 -15 -3 -10 5 4 7 2 12 -5 12 -10 0 -10 3 -2 11 8 8 8 20 3 34 -5 13
-7 25 -6 26 8 10 15 69 7 65 -4 -3 -5 12 -1 32 3 20 11 36 16 35 6 -1 11 5 11
12 0 11 -4 12 -14 4 -9 -8 -13 -8 -13 0 0 22 2 26 13 23 7 -1 3 5 -7 13 -11 8
-15 15 -9 15 9 0 11 18 3 40 -7 19 -3 260 4 260 5 0 3 7 -4 15 -7 8 -8 15 -3
15 5 0 10 7 10 15 0 8 -3 15 -6 15 -8 0 -6 54 3 68 4 7 3 12 -2 12 -5 0 -7 15
-6 33 1 17 3 32 4 32 1 0 3 12 4 28 1 15 -1 27 -4 27 -7 0 -4 95 4 109 4 6 2
11 -5 11 -7 0 -5 9 6 26 9 15 12 23 6 20 -13 -8 -12 -13 -13 90 -1 44 2 86 6
92 4 7 3 12 -2 12 -8 0 -8 28 1 93 2 15 1 27 -2 27 -8 0 -5 95 3 109 4 6 2 11
-5 11 -7 0 -5 9 6 26 9 15 12 23 6 20 -13 -8 -12 -13 -13 90 -1 44 2 86 6 92
4 7 3 12 -2 12 -8 0 -8 28 1 93 2 15 1 27 -2 27 -8 0 -5 95 3 109 4 6 2 11 -5
11 -7 0 -5 9 6 26 9 15 12 23 6 20 -13 -8 -12 -13 -13 90 -1 44 2 86 6 92 4 7
3 12 -2 12 -8 0 -8 28 1 93 2 15 1 27 -2 27 -8 0 -5 95 3 109 4 6 2 11 -5 11
-7 0 -5 9 6 26 9 15 12 23 6 20 -13 -8 -12 -13 -13 90 -1 44 2 86 6 92 4 7 3
12 -2 12 -8 0 -8 28 1 93 2 15 1 27 -2 27 -8 0 -5 95 3 109 4 6 2 11 -5 11 -7
0 -5 9 6 26 9 15 12 23 6 20 -13 -8 -12 -13 -13 90 -1 44 2 86 6 92 4 7 3 12
-2 12 -8 0 -8 28 1 93 2 15 1 27 -2 27 -8 0 -5 95 3 109 4 6 2 11 -5 11 -7 0
-5 9 6 26 9 15 12 23 6 20 -13 -8 -12 -13 -13 90 -1 44 2 86 6 92 4 7 3 12 -2
12 -8 0 -8 28 1 93 2 15 1 27 -2 27 -8 0 -5 95 3 109 4 6 2 11 -5 11 -7 0 -5
9 6 26 9 15 12 23 6 20 -13 -8 -12 -13 -13 90 -1 44 2 86 6 92 4 7 4 12 -1 12
-10 0 -9 93 1 109 4 6 3 11 -2 11 -5 0 -8 10 -6 23 1 12 3 26 3 30 1 5 7 5 14
1 7 -5 7 -1 -2 10 -9 11 -14 41 -14 86 0 45 5 75 14 86 8 10 9 15 3 11 -7 -4
-14 0 -18 8 -3 8 -2 15 3 15 4 0 6 12 3 26 -4 21 -2 25 9 19 11 -7 12 -6 3 6
-15 19 -25 64 -17 73 11 11 9 50 -2 58 -6 5 -6 11 2 19 7 7 8 21 3 39 -4 15
-4 33 0 41 5 7 5 20 0 29 -17 31 26 59 47 32 7 -9 23 -17 35 -19z m-5530 -265
c-9 -9 -12 -7 -12 12 0 19 3 21 12 12 9 -9 9 -15 0 -24z"/>
<path d="M2177 6993 c-3 -5 0 -17 4 -28 9 -19 9 -19 5 2 -2 14 2 23 13 26 14
4 14 5 -1 6 -9 0 -19 -2 -21 -6z"/>
<path d="M2228 6993 c6 -2 18 -2 25 0 6 3 1 5 -13 5 -14 0 -19 -2 -12 -5z"/>
<path d="M2325 6992 c-5 -4 -11 -14 -13 -22 -2 -8 0 -12 4 -8 4 4 14 2 23 -5
14 -10 14 -10 3 5 -8 9 -11 22 -7 28 7 12 4 13 -10 2z"/>
<path d="M2353 6985 c0 -8 4 -12 9 -9 5 3 6 10 3 15 -9 13 -12 11 -12 -6z"/>
<path d="M2433 6977 c-1 -11 -1 -18 0 -16 2 2 8 11 15 20 9 12 9 16 -1 16 -7
0 -14 -9 -14 -20z"/>
<path d="M4226 6988 c3 -5 10 -6 15 -3 13 9 11 12 -6 12 -8 0 -12 -4 -9 -9z"/>
<path d="M4484 6989 c-3 -6 1 -17 10 -25 9 -8 11 -9 6 -2 -14 16 -13 31 2 22
7 -4 8 -3 4 4 -9 15 -13 15 -22 1z"/>
<path d="M2121 6983 c-1 -6 -4 -20 -7 -30 -5 -17 -5 -17 6 0 6 10 9 23 6 30
-3 9 -5 9 -5 0z"/>
<path d="M2205 6970 c-3 -6 1 -7 9 -4 18 7 21 14 7 14 -6 0 -13 -4 -16 -10z"/>
<path d="M4400 6976 c0 -2 8 -10 18 -17 15 -13 16 -12 3 4 -13 16 -21 21 -21
13z"/>
<path d="M4525 6970 c-3 -6 1 -7 9 -4 18 7 21 14 7 14 -6 0 -13 -4 -16 -10z"/>
<path d="M2795 6960 c-4 -6 -11 -7 -17 -4 -7 4 -8 2 -4 -5 6 -9 11 -9 22 0 14
11 18 19 10 19 -3 0 -8 -5 -11 -10z"/>
<path d="M2949 6953 c-13 -16 -12 -17 4 -4 9 7 17 15 17 17 0 8 -8 3 -21 -13z"/>
<path d="M3115 6960 c-4 -6 -11 -7 -17 -4 -7 4 -8 2 -4 -5 6 -9 11 -9 22 0 14
11 18 19 10 19 -3 0 -8 -5 -11 -10z"/>
<path d="M3275 6960 c-4 -6 -11 -7 -17 -4 -7 4 -8 2 -4 -5 6 -9 11 -9 22 0 14
11 18 19 10 19 -3 0 -8 -5 -11 -10z"/>
<path d="M3595 6960 c-4 -6 -11 -7 -17 -4 -7 4 -8 2 -4 -5 6 -9 11 -9 22 0 14
11 18 19 10 19 -3 0 -8 -5 -11 -10z"/>
<path d="M3755 6960 c-4 -6 -11 -7 -17 -4 -7 4 -8 2 -4 -5 6 -9 11 -9 22 0 14
11 18 19 10 19 -3 0 -8 -5 -11 -10z"/>
<path d="M3910 6967 c0 -2 6 -10 14 -16 11 -9 16 -9 22 1 4 7 4 10 -1 6 -4 -4
-14 -3 -22 3 -7 6 -13 9 -13 6z"/>
<path d="M2134 6948 c-4 -5 -3 -12 0 -15 3 -4 6 -1 6 5 0 6 7 9 15 6 8 -4 15
-2 15 3 0 12 -29 13 -36 1z"/>
<path d="M2219 6958 c-8 -27 -5 -36 9 -30 10 4 12 7 4 10 -7 2 -10 8 -6 13 3
5 3 9 0 9 -3 0 -6 -1 -7 -2z"/>
<path d="M2396 6943 c-6 -14 -5 -15 5 -6 7 7 10 15 7 18 -3 3 -9 -2 -12 -12z"/>
<path d="M2570 6949 c0 -5 5 -7 10 -4 6 3 10 8 10 11 0 2 -4 4 -10 4 -5 0 -10
-5 -10 -11z"/>
<path d="M2710 6955 c0 -7 30 -13 34 -7 3 4 -4 9 -15 9 -10 1 -19 0 -19 -2z"/>
<path d="M2855 6950 c-2 -3 9 -6 25 -6 17 0 27 2 25 5 -8 7 -45 9 -50 1z"/>
<path d="M3039 6943 c-12 -16 -12 -17 2 -6 9 7 20 9 24 5 5 -4 5 -1 1 6 -9 16
-11 15 -27 -5z"/>
<path d="M3199 6943 c-12 -16 -12 -17 2 -6 9 7 20 9 24 5 5 -4 5 -1 1 6 -9 16
-11 15 -27 -5z"/>
<path d="M3446 6952 c-3 -5 1 -9 9 -9 8 0 12 4 9 9 -3 4 -7 8 -9 8 -2 0 -6 -4
-9 -8z"/>
<path d="M3495 6951 c3 -3 17 -6 31 -7 13 0 22 2 19 5 -3 3 -17 6 -31 7 -13 0
-22 -2 -19 -5z"/>
<path d="M3679 6943 c-12 -16 -12 -17 2 -6 9 7 20 9 24 5 5 -4 5 -1 1 6 -9 16
-11 15 -27 -5z"/>
<path d="M3839 6943 c-12 -16 -12 -17 2 -6 9 7 20 9 24 5 5 -4 5 -1 1 6 -9 16
-11 15 -27 -5z"/>
<path d="M3975 6950 c3 -5 8 -10 11 -10 2 0 4 5 4 10 0 6 -5 10 -11 10 -5 0
-7 -4 -4 -10z"/>
<path d="M4135 6950 c3 -5 8 -10 11 -10 2 0 4 5 4 10 0 6 -5 10 -11 10 -5 0
-7 -4 -4 -10z"/>
<path d="M4460 6950 c-12 -7 -10 -9 7 -7 12 0 19 5 17 9 -6 10 -6 10 -24 -2z"/>
<path d="M2429 6933 c-13 -16 -12 -17 4 -4 16 13 21 21 13 21 -2 0 -10 -8 -17
-17z"/>
<path d="M2313 6921 c0 -11 5 -18 9 -15 4 3 5 11 1 19 -7 21 -12 19 -10 -4z"/>
<path d="M4499 6923 c-13 -16 -12 -17 4 -4 9 7 17 15 17 17 0 8 -8 3 -21 -13z"/>
<path d="M2157 6923 c-10 -9 -9 -23 1 -23 5 0 9 7 9 15 0 17 -1 18 -10 8z"/>
<path d="M2495 6910 c3 -5 8 -10 11 -10 2 0 4 5 4 10 0 6 -5 10 -11 10 -5 0
-7 -4 -4 -10z"/>
<path d="M2177 6886 c-4 -10 -1 -13 8 -9 8 3 12 9 9 14 -7 12 -11 11 -17 -5z"/>
<path d="M4510 6891 c0 -6 4 -13 10 -16 6 -3 7 1 4 9 -7 18 -14 21 -14 7z"/>
<path d="M4330 6870 c0 -5 5 -10 11 -10 5 0 7 5 4 10 -3 6 -8 10 -11 10 -2 0
-4 -4 -4 -10z"/>
<path d="M4440 6870 c-9 -6 -10 -10 -3 -10 6 0 15 5 18 10 8 12 4 12 -15 0z"/>
<path d="M2147 6838 c-5 -21 -5 -21 7 -6 10 14 15 15 26 5 12 -10 12 -9 1 6
-18 23 -28 22 -34 -5z"/>
<path d="M2226 6828 c3 -4 9 -8 15 -8 5 0 9 4 9 8 0 5 -7 9 -15 9 -8 0 -12 -4
-9 -9z"/>
<path d="M2330 6829 c0 -5 5 -7 10 -4 6 3 10 8 10 11 0 2 -4 4 -10 4 -5 0 -10
-5 -10 -11z"/>
<path d="M2366 6832 c-3 -5 1 -9 9 -9 8 0 12 4 9 9 -3 4 -7 8 -9 8 -2 0 -6 -4
-9 -8z"/>
<path d="M4410 6829 c0 -5 5 -7 10 -4 6 3 10 8 10 11 0 2 -4 4 -10 4 -5 0 -10
-5 -10 -11z"/>
<path d="M2156 6811 c-3 -5 2 -15 12 -22 15 -12 16 -12 5 2 -7 9 -10 19 -6 22
3 4 4 7 0 7 -3 0 -8 -4 -11 -9z"/>
<path d="M2190 6805 c5 -7 6 -16 2 -21 -4 -5 -3 -5 2 -1 15 12 15 34 0 34 -9
0 -11 -4 -4 -12z"/>
<path d="M4500 6815 c0 -2 6 -8 13 -14 10 -8 14 -7 14 2 0 8 -6 14 -14 14 -7
0 -13 -1 -13 -2z"/>
<path d="M2225 6790 c-3 -6 1 -7 9 -4 18 7 21 14 7 14 -6 0 -13 -4 -16 -10z"/>
<path d="M2295 6790 c3 -5 8 -10 11 -10 2 0 4 5 4 10 0 6 -5 10 -11 10 -5 0
-7 -4 -4 -10z"/>
<path d="M2135 6771 c-3 -5 -2 -12 3 -15 5 -3 9 1 9 9 0 17 -3 19 -12 6z"/>
<path d="M4470 6770 c0 -5 5 -10 10 -10 6 0 10 5 10 10 0 6 -4 10 -10 10 -5 0
-10 -4 -10 -10z"/>
<path d="M4510 6771 c0 -6 4 -13 10 -16 6 -3 7 1 4 9 -7 18 -14 21 -14 7z"/>
<path d="M2246 6708 c3 -5 10 -6 15 -3 13 9 11 12 -6 12 -8 0 -12 -4 -9 -9z"/>
<path d="M2135 6699 c-4 -6 -5 -12 -2 -15 2 -3 7 2 10 11 7 17 1 20 -8 4z"/>
<path d="M2296 6692 c-3 -5 1 -9 9 -9 8 0 12 4 9 9 -3 4 -7 8 -9 8 -2 0 -6 -4
-9 -8z"/>
<path d="M4497 6685 c-4 -8 -3 -16 1 -19 4 -3 9 4 9 15 2 23 -3 25 -10 4z"/>
<path d="M2130 6666 c0 -2 8 -10 18 -17 15 -13 16 -12 3 4 -13 16 -21 21 -21
13z"/>
<path d="M2275 6640 c-4 -6 -11 -7 -17 -4 -7 4 -8 2 -4 -5 6 -9 11 -9 22 0 14
11 18 19 10 19 -3 0 -8 -5 -11 -10z"/>
<path d="M2351 6617 c-8 -10 -7 -14 2 -14 8 0 14 6 14 14 0 7 -1 13 -2 13 -2
0 -8 -6 -14 -13z"/>
<path d="M2115 6591 c-3 -5 -2 -12 3 -15 5 -3 9 1 9 9 0 17 -3 19 -12 6z"/>
<path d="M2170 6589 c0 -5 5 -7 10 -4 6 3 10 8 10 11 0 2 -4 4 -10 4 -5 0 -10
-5 -10 -11z"/>
<path d="M2206 6592 c-3 -5 1 -9 9 -9 8 0 12 4 9 9 -3 4 -7 8 -9 8 -2 0 -6 -4
-9 -8z"/>
<path d="M2310 6570 c0 -5 5 -10 11 -10 5 0 7 5 4 10 -3 6 -8 10 -11 10 -2 0
-4 -4 -4 -10z"/>
<path d="M4534 6566 c1 -8 5 -18 8 -22 4 -3 5 1 4 10 -1 8 -5 18 -8 22 -4 3
-5 -1 -4 -10z"/>
<path d="M2113 6505 c0 -8 4 -12 9 -9 5 3 6 10 3 15 -9 13 -12 11 -12 -6z"/>
<path d="M2126 6432 c-3 -5 1 -9 9 -9 8 0 12 4 9 9 -3 4 -7 8 -9 8 -2 0 -6 -4
-9 -8z"/>
<path d="M4536 6372 c-3 -5 1 -9 9 -9 8 0 12 4 9 9 -3 4 -7 8 -9 8 -2 0 -6 -4
-9 -8z"/>
<path d="M2175 6310 c3 -5 8 -10 11 -10 2 0 4 5 4 10 0 6 -5 10 -11 10 -5 0
-7 -4 -4 -10z"/>
<path d="M2235 6181 c-3 -5 -2 -12 3 -15 5 -3 9 1 9 9 0 17 -3 19 -12 6z"/>
<path d="M2146 5812 c-3 -5 1 -9 9 -9 8 0 12 4 9 9 -3 4 -7 8 -9 8 -2 0 -6 -4
-9 -8z"/>
<path d="M2145 5770 c-3 -6 1 -7 9 -4 18 7 21 14 7 14 -6 0 -13 -4 -16 -10z"/>
<path d="M2190 5450 c0 -5 5 -10 11 -10 5 0 7 5 4 10 -3 6 -8 10 -11 10 -2 0
-4 -4 -4 -10z"/>
<path d="M2156 5337 c3 -10 9 -15 12 -12 3 3 0 11 -7 18 -10 9 -11 8 -5 -6z"/>
<path d="M2233 5145 c0 -8 4 -12 9 -9 5 3 6 10 3 15 -9 13 -12 11 -12 -6z"/>
<path d="M4473 5065 c0 -8 4 -12 9 -9 5 3 6 10 3 15 -9 13 -12 11 -12 -6z"/>
<path d="M2170 4830 c0 -5 5 -10 11 -10 5 0 7 5 4 10 -3 6 -8 10 -11 10 -2 0
-4 -4 -4 -10z"/>
<path d="M2193 4775 c0 -8 4 -12 9 -9 5 3 6 10 3 15 -9 13 -12 11 -12 -6z"/>
<path d="M2190 4490 c0 -5 5 -10 11 -10 5 0 7 5 4 10 -3 6 -8 10 -11 10 -2 0
-4 -4 -4 -10z"/>
<path d="M2156 4377 c3 -10 9 -15 12 -12 3 3 0 11 -7 18 -10 9 -11 8 -5 -6z"/>
<path d="M2234 4186 c1 -8 5 -18 8 -22 4 -3 5 1 4 10 -1 8 -5 18 -8 22 -4 3
-5 -1 -4 -10z"/>
<path d="M2235 3861 c-3 -5 -2 -12 3 -15 5 -3 9 1 9 9 0 17 -3 19 -12 6z"/>
<path d="M2110 3830 c0 -5 5 -10 11 -10 5 0 7 5 4 10 -3 6 -8 10 -11 10 -2 0
-4 -4 -4 -10z"/>
<path d="M2156 3737 c3 -10 9 -15 12 -12 3 3 0 11 -7 18 -10 9 -11 8 -5 -6z"/>
<path d="M2234 3546 c1 -8 5 -18 8 -22 4 -3 5 1 4 10 -1 8 -5 18 -8 22 -4 3
-5 -1 -4 -10z"/>
<path d="M2235 3221 c-3 -5 -2 -12 3 -15 5 -3 9 1 9 9 0 17 -3 19 -12 6z"/>
<path d="M2110 3190 c0 -5 5 -10 11 -10 5 0 7 5 4 10 -3 6 -8 10 -11 10 -2 0
-4 -4 -4 -10z"/>
<path d="M2156 3097 c3 -10 9 -15 12 -12 3 3 0 11 -7 18 -10 9 -11 8 -5 -6z"/>
<path d="M2234 2906 c1 -8 5 -18 8 -22 4 -3 5 1 4 10 -1 8 -5 18 -8 22 -4 3
-5 -1 -4 -10z"/>
<path d="M2147 2849 c7 -7 15 -10 18 -7 3 3 -2 9 -12 12 -14 6 -15 5 -6 -5z"/>
<path d="M4473 2695 c0 -8 4 -12 9 -9 5 3 6 10 3 15 -9 13 -12 11 -12 -6z"/>
<path d="M2166 2672 c-3 -5 1 -9 9 -9 8 0 12 4 9 9 -3 4 -7 8 -9 8 -2 0 -6 -4
-9 -8z"/>
<path d="M2110 2548 c0 -4 4 -8 9 -8 6 0 12 4 15 8 3 5 -1 9 -9 9 -8 0 -15 -4
-15 -9z"/>
<path d="M2216 2512 c-3 -4 4 -9 15 -9 23 -2 25 3 4 10 -8 4 -16 3 -19 -1z"/>
<path d="M2156 2452 c-3 -5 1 -9 9 -9 8 0 12 4 9 9 -3 4 -7 8 -9 8 -2 0 -6 -4
-9 -8z"/>
<path d="M2193 2445 c0 -8 4 -12 9 -9 4 3 8 9 8 15 0 5 -4 9 -8 9 -5 0 -9 -7
-9 -15z"/>
<path d="M4535 2430 c3 -5 8 -10 11 -10 2 0 4 5 4 10 0 6 -5 10 -11 10 -5 0
-7 -4 -4 -10z"/>
<path d="M4494 2392 c4 -3 14 -7 22 -8 9 -1 13 0 10 4 -4 3 -14 7 -22 8 -9 1
-13 0 -10 -4z"/>
<path d="M2235 2371 c-3 -5 -2 -12 3 -15 5 -3 9 1 9 9 0 17 -3 19 -12 6z"/>
<path d="M4467 2369 c7 -7 15 -10 18 -7 3 3 -2 9 -12 12 -14 6 -15 5 -6 -5z"/>
<path d="M2154 2316 c1 -8 5 -18 8 -22 4 -3 5 1 4 10 -1 8 -5 18 -8 22 -4 3
-5 -1 -4 -10z"/>
<path d="M2190 2306 c7 -7 13 -7 20 0 6 6 3 10 -10 10 -13 0 -16 -4 -10 -10z"/>
<path d="M4435 2309 c-3 -4 2 -6 10 -5 21 3 28 13 10 13 -9 0 -18 -4 -20 -8z"/>
<path d="M2490 2306 c0 -2 8 -10 18 -17 15 -13 16 -12 3 4 -13 16 -21 21 -21
13z"/>
<path d="M2306 2292 c-3 -5 1 -9 9 -9 8 0 12 4 9 9 -3 4 -7 8 -9 8 -2 0 -6 -4
-9 -8z"/>
<path d="M2355 2290 c3 -5 8 -10 11 -10 2 0 4 5 4 10 0 6 -5 10 -11 10 -5 0
-7 -4 -4 -10z"/>
<path d="M2613 2285 c0 -8 4 -12 9 -9 5 3 6 10 3 15 -9 13 -12 11 -12 -6z"/>
<path d="M4315 2291 c-3 -5 -2 -12 3 -15 5 -3 9 1 9 9 0 17 -3 19 -12 6z"/>
<path d="M2237 2283 c-10 -9 -9 -23 1 -23 5 0 9 7 9 15 0 17 -1 18 -10 8z"/>
<path d="M4413 2275 c0 -8 4 -12 9 -9 5 3 6 10 3 15 -9 13 -12 11 -12 -6z"/>
<path d="M2115 2258 c3 -12 10 -26 16 -32 9 -8 9 -6 2 9 -6 11 -8 26 -6 33 3
6 0 12 -6 12 -5 0 -8 -10 -6 -22z"/>
<path d="M2194 2261 c4 -6 3 -18 -3 -25 -8 -9 -7 -13 2 -13 16 0 20 34 5 43
-7 4 -8 2 -4 -5z"/>
<path d="M2373 2225 c0 -8 4 -12 9 -9 5 3 6 10 3 15 -9 13 -12 11 -12 -6z"/>
<path d="M4415 2230 c-3 -5 -1 -10 4 -10 6 0 11 5 11 10 0 6 -2 10 -4 10 -3 0
-8 -4 -11 -10z"/>
<path d="M3729 2213 c-13 -16 -12 -17 4 -4 16 13 21 21 13 21 -2 0 -10 -8 -17
-17z"/>
<path d="M2150 2210 c0 -5 5 -10 10 -10 6 0 10 5 10 10 0 6 -4 10 -10 10 -5 0
-10 -4 -10 -10z"/>
<path d="M3276 2212 c-3 -5 1 -9 9 -9 8 0 12 4 9 9 -3 4 -7 8 -9 8 -2 0 -6 -4
-9 -8z"/>
<path d="M2271 2197 c-8 -10 -7 -14 2 -14 8 0 14 6 14 14 0 7 -1 13 -2 13 -2
0 -8 -6 -14 -13z"/>
<path d="M2227 2189 c7 -7 15 -10 18 -7 3 3 -2 9 -12 12 -14 6 -15 5 -6 -5z"/>
<path d="M4330 2190 c0 -5 5 -10 11 -10 5 0 7 5 4 10 -3 6 -8 10 -11 10 -2 0
-4 -4 -4 -10z"/>
<path d="M2117 2176 c-4 -10 -3 -15 2 -11 5 3 11 0 13 -7 5 -14 38 -20 38 -6
0 5 -6 8 -12 5 -7 -2 -18 5 -24 16 -10 17 -12 18 -17 3z"/>
<path d="M2356 2177 c3 -10 9 -15 12 -12 3 3 0 11 -7 18 -10 9 -11 8 -5 -6z"/>
<path d="M4395 2181 c-3 -5 -2 -12 3 -15 5 -3 9 1 9 9 0 17 -3 19 -12 6z"/>
<path d="M4493 2177 c0 -8 6 -14 14 -14 9 0 10 4 2 14 -6 7 -12 13 -14 13 -1
0 -2 -6 -2 -13z"/>
<path d="M2206 2167 c3 -10 9 -15 12 -12 3 3 0 11 -7 18 -10 9 -11 8 -5 -6z"/>
<path d="M2386 2172 c-3 -5 1 -9 9 -9 8 0 12 4 9 9 -3 4 -7 8 -9 8 -2 0 -6 -4
-9 -8z"/>
<path d="M2426 2168 c3 -5 10 -6 15 -3 13 9 11 12 -6 12 -8 0 -12 -4 -9 -9z"/>
<path d="M2660 2170 c-9 -6 -10 -10 -3 -10 6 0 15 5 18 10 8 12 4 12 -15 0z"/>
<path d="M4430 2166 c7 -7 13 -7 20 0 6 6 3 10 -10 10 -13 0 -16 -4 -10 -10z"/>
<path d="M2530 2150 c0 -5 5 -10 11 -10 5 0 7 5 4 10 -3 6 -8 10 -11 10 -2 0
-4 -4 -4 -10z"/>
<path d="M4255 2150 c-3 -5 -1 -10 4 -10 6 0 11 5 11 10 0 6 -2 10 -4 10 -3 0
-8 -4 -11 -10z"/>
<path d="M4523 2145 c-3 -9 -3 -18 -1 -21 3 -3 8 4 11 16 6 23 -1 27 -10 5z"/>
<path d="M2435 2139 c-4 -6 -14 -8 -22 -5 -8 3 -11 2 -8 -3 8 -14 42 -9 42 6
0 16 -4 16 -12 2z"/>
<path d="M9790 7006 c0 -2 8 -10 18 -17 15 -13 16 -12 3 4 -13 16 -21 21 -21
13z"/>
<path d="M9879 7008 c-1 -2 -2 -17 -4 -34 -1 -20 3 -31 11 -31 9 0 11 4 4 12
-5 6 -8 21 -5 33 3 18 -1 31 -6 20z"/>
<path d="M9993 6995 c0 -8 4 -15 9 -15 4 0 8 4 8 9 0 6 -4 12 -8 15 -5 3 -9
-1 -9 -9z"/>
<path d="M7564 6989 c-5 -8 -3 -9 6 -4 10 6 12 1 8 -18 -3 -15 -1 -24 3 -21
12 7 11 41 0 49 -5 3 -13 0 -17 -6z"/>
<path d="M7675 6991 c-3 -5 -2 -12 3 -15 5 -3 9 1 9 9 0 17 -3 19 -12 6z"/>
<path d="M8650 6989 c0 -5 5 -7 10 -4 6 3 10 8 10 11 0 2 -4 4 -10 4 -5 0 -10
-5 -10 -11z"/>
<path d="M9840 6990 c-9 -6 -10 -10 -3 -10 6 0 15 5 18 10 8 12 4 12 -15 0z"/>
<path d="M7733 6977 c0 -8 18 -12 47 -13 32 0 47 4 47 13 0 8 -4 9 -12 3 -10
-8 -58 -5 -75 5 -4 2 -7 -1 -7 -8z"/>
<path d="M8195 6981 c-3 -5 -2 -12 3 -15 5 -3 9 1 9 9 0 17 -3 19 -12 6z"/>
<path d="M8269 6973 c-13 -16 -12 -17 4 -4 16 13 21 21 13 21 -2 0 -10 -8 -17
-17z"/>
<path d="M8830 6986 c0 -2 8 -10 18 -17 15 -13 16 -12 3 4 -13 16 -21 21 -21
13z"/>
<path d="M9316 6977 c3 -10 9 -15 12 -12 3 3 0 11 -7 18 -10 9 -11 8 -5 -6z"/>
<path d="M9948 6983 c6 -2 10 -8 8 -12 -3 -4 1 -8 9 -8 8 0 15 4 15 8 0 7 -26
20 -38 18 -4 0 -1 -3 6 -6z"/>
<path d="M7610 6960 c6 -11 13 -20 16 -20 2 0 0 9 -6 20 -6 11 -13 20 -16 20
-2 0 0 -9 6 -20z"/>
<path d="M8455 6970 c-3 -5 -1 -10 4 -10 6 0 11 5 11 10 0 6 -2 10 -4 10 -3 0
-8 -4 -11 -10z"/>
<path d="M9174 6966 c1 -8 5 -18 8 -22 4 -3 5 1 4 10 -1 8 -5 18 -8 22 -4 3
-5 -1 -4 -10z"/>
<path d="M7637 6959 c7 -7 15 -10 18 -7 3 3 -2 9 -12 12 -14 6 -15 5 -6 -5z"/>
<path d="M8655 6961 c-3 -5 -2 -12 3 -15 5 -3 9 1 9 9 0 17 -3 19 -12 6z"/>
<path d="M7746 6952 c-3 -5 1 -9 9 -9 8 0 12 4 9 9 -3 4 -7 8 -9 8 -2 0 -6 -4
-9 -8z"/>
<path d="M8130 6950 c0 -5 5 -10 11 -10 5 0 7 5 4 10 -3 6 -8 10 -11 10 -2 0
-4 -4 -4 -10z"/>
<path d="M8515 6949 c-3 -4 2 -6 10 -5 21 3 28 13 10 13 -9 0 -18 -4 -20 -8z"/>
<path d="M8615 6951 c-3 -5 -2 -12 3 -15 5 -3 9 1 9 9 0 17 -3 19 -12 6z"/>
<path d="M8975 6950 c-3 -5 -1 -10 4 -10 6 0 11 5 11 10 0 6 -2 10 -4 10 -3 0
-8 -4 -11 -10z"/>
<path d="M9055 6949 c-3 -4 2 -6 10 -5 21 3 28 13 10 13 -9 0 -18 -4 -20 -8z"/>
<path d="M9236 6948 c3 -4 11 -5 19 -1 21 7 19 12 -4 10 -11 0 -18 -5 -15 -9z"/>
<path d="M9794 6946 c1 -8 5 -18 8 -22 4 -3 5 1 4 10 -1 8 -5 18 -8 22 -4 3
-5 -1 -4 -10z"/>
<path d="M7853 6935 c0 -8 4 -12 9 -9 5 3 6 10 3 15 -9 13 -12 11 -12 -6z"/>
<path d="M9942 6934 c10 -10 20 -16 22 -13 3 3 -5 11 -17 18 -21 13 -21 12 -5
-5z"/>
<path d="M7595 6930 c3 -5 8 -10 11 -10 2 0 4 5 4 10 0 6 -5 10 -11 10 -5 0
-7 -4 -4 -10z"/>
<path d="M7645 6930 c-3 -6 1 -7 9 -4 18 7 21 14 7 14 -6 0 -13 -4 -16 -10z"/>
<path d="M8196 6928 c3 -5 10 -6 15 -3 13 9 11 12 -6 12 -8 0 -12 -4 -9 -9z"/>
<path d="M9550 6930 c0 -5 5 -10 11 -10 5 0 7 5 4 10 -3 6 -8 10 -11 10 -2 0
-4 -4 -4 -10z"/>
<path d="M9744 6932 c4 -3 14 -7 22 -8 9 -1 13 0 10 4 -4 3 -14 7 -22 8 -9 1
-13 0 -10 -4z"/>
<path d="M9840 6930 c-9 -6 -10 -10 -3 -10 6 0 15 5 18 10 8 12 4 12 -15 0z"/>
<path d="M7574 6909 c-3 -6 -3 -13 0 -16 3 -4 6 -1 6 5 0 6 7 9 15 6 8 -4 15
-4 15 -1 0 11 -30 16 -36 6z"/>
<path d="M7715 6912 c3 -3 -1 -12 -7 -21 -8 -10 -4 -9 10 3 26 23 26 23 7 23
-8 0 -13 -3 -10 -5z"/>
<path d="M9910 6916 c0 -2 7 -7 16 -10 8 -3 12 -2 9 4 -6 10 -25 14 -25 6z"/>
<path d="M7667 6889 c7 -7 15 -10 18 -7 3 3 -2 9 -12 12 -14 6 -15 5 -6 -5z"/>
<path d="M7746 6892 c-3 -5 1 -9 9 -9 8 0 15 4 15 9 0 4 -4 8 -9 8 -6 0 -12
-4 -15 -8z"/>
<path d="M7790 6886 c7 -7 13 -7 20 0 6 6 3 10 -10 10 -13 0 -16 -4 -10 -10z"/>
<path d="M9790 6896 c0 -2 7 -7 16 -10 8 -3 12 -2 9 4 -6 10 -25 14 -25 6z"/>
<path d="M7635 6881 c-6 -11 13 -26 22 -17 4 3 1 6 -6 6 -7 0 -9 5 -6 10 3 6
4 10 1 10 -3 0 -7 -4 -11 -9z"/>
<path d="M9715 6870 c3 -5 8 -10 11 -10 2 0 4 5 4 10 0 6 -5 10 -11 10 -5 0
-7 -4 -4 -10z"/>
<path d="M7686 6851 c-14 -15 -15 -21 -4 -27 7 -4 10 -3 5 1 -4 5 0 17 10 27
9 10 14 18 11 18 -3 0 -13 -9 -22 -19z"/>
<path d="M9919 6843 c-13 -16 -12 -17 4 -4 9 7 17 15 17 17 0 8 -8 3 -21 -13z"/>
<path d="M7588 6833 c7 -3 16 -2 19 1 4 3 -2 6 -13 5 -11 0 -14 -3 -6 -6z"/>
<path d="M7637 6818 c19 -21 31 -24 14 -4 -9 11 -9 15 1 19 7 3 3 4 -9 4 -21
-1 -21 -2 -6 -19z"/>
<path d="M7576 6808 c3 -5 10 -6 15 -3 13 9 11 12 -6 12 -8 0 -12 -4 -9 -9z"/>
<path d="M7700 6816 c0 -2 8 -10 18 -17 15 -13 16 -12 3 4 -13 16 -21 21 -21
13z"/>
<path d="M8110 6810 c0 -5 5 -10 11 -10 5 0 7 5 4 10 -3 6 -8 10 -11 10 -2 0
-4 -4 -4 -10z"/>
<path d="M9893 6785 c0 -8 4 -12 9 -9 5 3 6 10 3 15 -9 13 -12 11 -12 -6z"/>
<path d="M7656 6777 c3 -10 9 -15 12 -12 3 3 0 11 -7 18 -10 9 -11 8 -5 -6z"/>
<path d="M7619 6763 c-12 -16 -12 -17 2 -6 9 7 20 9 24 5 5 -4 5 -1 1 6 -9 16
-11 15 -27 -5z"/>
<path d="M9826 6772 c-2 -4 4 -8 14 -8 10 0 16 4 14 8 -3 4 -9 8 -14 8 -5 0
-11 -4 -14 -8z"/>
<path d="M7756 6743 c-6 -14 -5 -15 5 -6 7 7 10 15 7 18 -3 3 -9 -2 -12 -12z"/>
<path d="M7635 6730 c3 -5 8 -10 11 -10 2 0 4 5 4 10 0 6 -5 10 -11 10 -5 0
-7 -4 -4 -10z"/>
<path d="M7660 6736 c0 -2 8 -10 18 -17 15 -13 16 -12 3 4 -13 16 -21 21 -21
13z"/>
<path d="M9950 6729 c0 -5 5 -7 10 -4 6 3 10 8 10 11 0 2 -4 4 -10 4 -5 0 -10
-5 -10 -11z"/>
<path d="M7617 6700 c7 -8 20 -15 29 -16 9 -1 13 1 9 4 -4 4 -10 7 -13 7 -4 0
-14 4 -22 9 -12 7 -13 6 -3 -4z"/>
<path d="M7915 6701 c-3 -5 -2 -12 3 -15 5 -3 9 1 9 9 0 17 -3 19 -12 6z"/>
<path d="M7750 6689 c0 -5 5 -7 10 -4 6 3 10 8 10 11 0 2 -4 4 -10 4 -5 0 -10
-5 -10 -11z"/>
<path d="M7586 6672 c-3 -5 1 -9 9 -9 8 0 15 4 15 9 0 4 -4 8 -9 8 -6 0 -12
-4 -15 -8z"/>
<path d="M7690 6670 c0 -5 5 -10 11 -10 5 0 7 5 4 10 -3 6 -8 10 -11 10 -2 0
-4 -4 -4 -10z"/>
<path d="M7590 6636 c0 -2 7 -7 16 -10 8 -3 12 -2 9 4 -6 10 -25 14 -25 6z"/>
<path d="M9950 6586 c0 -2 8 -10 18 -17 15 -13 16 -12 3 4 -13 16 -21 21 -21
13z"/>
<path d="M7566 6572 c-3 -5 1 -9 9 -9 8 0 12 4 9 9 -3 4 -7 8 -9 8 -2 0 -6 -4
-9 -8z"/>
<path d="M7679 6563 c-13 -16 -12 -17 4 -4 9 7 17 15 17 17 0 8 -8 3 -21 -13z"/>
<path d="M7575 6530 c3 -5 8 -10 11 -10 2 0 4 5 4 10 0 6 -5 10 -11 10 -5 0
-7 -4 -4 -10z"/>
<path d="M7659 6538 c-5 -18 -6 -38 -1 -34 7 8 12 36 6 36 -2 0 -4 -1 -5 -2z"/>
<path d="M7720 6410 c-9 -6 -10 -10 -3 -10 6 0 15 5 18 10 8 12 4 12 -15 0z"/>
<path d="M7586 6368 c3 -5 10 -6 15 -3 13 9 11 12 -6 12 -8 0 -12 -4 -9 -9z"/>
<path d="M7610 6309 c0 -5 5 -7 10 -4 6 3 10 8 10 11 0 2 -4 4 -10 4 -5 0 -10
-5 -10 -11z"/>
<path d="M7615 6230 c3 -5 8 -10 11 -10 2 0 4 5 4 10 0 6 -5 10 -11 10 -5 0
-7 -4 -4 -10z"/>
<path d="M7610 6190 c0 -5 5 -10 11 -10 5 0 7 5 4 10 -3 6 -8 10 -11 10 -2 0
-4 -4 -4 -10z"/>
<path d="M7610 6110 c0 -5 5 -10 11 -10 5 0 7 5 4 10 -3 6 -8 10 -11 10 -2 0
-4 -4 -4 -10z"/>
<path d="M7600 6070 c-12 -7 -10 -9 7 -7 12 0 19 5 17 9 -6 10 -6 10 -24 -2z"/>
<path d="M7670 6069 c0 -5 5 -7 10 -4 6 3 10 8 10 11 0 2 -4 4 -10 4 -5 0 -10
-5 -10 -11z"/>
<path d="M7615 6030 c3 -5 8 -10 11 -10 2 0 4 5 4 10 0 6 -5 10 -11 10 -5 0
-7 -4 -4 -10z"/>
<path d="M7670 6011 c0 -6 4 -13 10 -16 6 -3 7 1 4 9 -7 18 -14 21 -14 7z"/>
<path d="M7714 5970 c0 -13 4 -16 10 -10 7 7 7 13 0 20 -6 6 -10 3 -10 -10z"/>
<path d="M7606 5948 c3 -5 10 -6 15 -3 13 9 11 12 -6 12 -8 0 -12 -4 -9 -9z"/>
<path d="M7670 5950 c0 -5 5 -10 11 -10 5 0 7 5 4 10 -3 6 -8 10 -11 10 -2 0
-4 -4 -4 -10z"/>
<path d="M7576 5937 c3 -10 9 -15 12 -12 3 3 0 11 -7 18 -10 9 -11 8 -5 -6z"/>
<path d="M7610 5909 c0 -5 5 -7 10 -4 6 3 10 8 10 11 0 2 -4 4 -10 4 -5 0 -10
-5 -10 -11z"/>
<path d="M7615 5750 c3 -5 8 -10 11 -10 2 0 4 5 4 10 0 6 -5 10 -11 10 -5 0
-7 -4 -4 -10z"/>
<path d="M7680 5730 c-9 -6 -10 -10 -3 -10 6 0 15 5 18 10 8 12 4 12 -15 0z"/>
<path d="M7610 5710 c0 -5 5 -10 11 -10 5 0 7 5 4 10 -3 6 -8 10 -11 10 -2 0
-4 -4 -4 -10z"/>
<path d="M7740 5656 c0 -2 8 -10 18 -17 15 -13 16 -12 3 4 -13 16 -21 21 -21
13z"/>
<path d="M7610 5630 c0 -5 5 -10 11 -10 5 0 7 5 4 10 -3 6 -8 10 -11 10 -2 0
-4 -4 -4 -10z"/>
<path d="M7600 5590 c-12 -7 -10 -9 7 -7 12 0 19 5 17 9 -6 10 -6 10 -24 -2z"/>
<path d="M7670 5590 c0 -5 5 -10 11 -10 5 0 7 5 4 10 -3 6 -8 10 -11 10 -2 0
-4 -4 -4 -10z"/>
<path d="M7615 5550 c3 -5 8 -10 11 -10 2 0 4 5 4 10 0 6 -5 10 -11 10 -5 0
-7 -4 -4 -10z"/>
<path d="M7606 5468 c3 -5 10 -6 15 -3 13 9 11 12 -6 12 -8 0 -12 -4 -9 -9z"/>
<path d="M7576 5457 c3 -10 9 -15 12 -12 3 3 0 11 -7 18 -10 9 -11 8 -5 -6z"/>
<path d="M7610 5429 c0 -5 5 -7 10 -4 6 3 10 8 10 11 0 2 -4 4 -10 4 -5 0 -10
-5 -10 -11z"/>
<path d="M7669 5413 c-13 -16 -12 -17 4 -4 16 13 21 21 13 21 -2 0 -10 -8 -17
-17z"/>
<path d="M7615 5270 c3 -5 8 -10 11 -10 2 0 4 5 4 10 0 6 -5 10 -11 10 -5 0
-7 -4 -4 -10z"/>
<path d="M7610 5230 c0 -5 5 -10 11 -10 5 0 7 5 4 10 -3 6 -8 10 -11 10 -2 0
-4 -4 -4 -10z"/>
<path d="M7610 5150 c0 -5 5 -10 11 -10 5 0 7 5 4 10 -3 6 -8 10 -11 10 -2 0
-4 -4 -4 -10z"/>
<path d="M7600 5110 c-12 -7 -10 -9 7 -7 12 0 19 5 17 9 -6 10 -6 10 -24 -2z"/>
<path d="M7670 5109 c0 -5 5 -7 10 -4 6 3 10 8 10 11 0 2 -4 4 -10 4 -5 0 -10
-5 -10 -11z"/>
<path d="M7615 5070 c3 -5 8 -10 11 -10 2 0 4 5 4 10 0 6 -5 10 -11 10 -5 0
-7 -4 -4 -10z"/>
<path d="M7670 5051 c0 -6 4 -13 10 -16 6 -3 7 1 4 9 -7 18 -14 21 -14 7z"/>
<path d="M7714 5010 c0 -13 4 -16 10 -10 7 7 7 13 0 20 -6 6 -10 3 -10 -10z"/>
<path d="M7606 4988 c3 -5 10 -6 15 -3 13 9 11 12 -6 12 -8 0 -12 -4 -9 -9z"/>
<path d="M7670 4990 c0 -5 5 -10 11 -10 5 0 7 5 4 10 -3 6 -8 10 -11 10 -2 0
-4 -4 -4 -10z"/>
<path d="M7576 4977 c3 -10 9 -15 12 -12 3 3 0 11 -7 18 -10 9 -11 8 -5 -6z"/>
<path d="M7610 4949 c0 -5 5 -7 10 -4 6 3 10 8 10 11 0 2 -4 4 -10 4 -5 0 -10
-5 -10 -11z"/>
<path d="M7615 4790 c3 -5 8 -10 11 -10 2 0 4 5 4 10 0 6 -5 10 -11 10 -5 0
-7 -4 -4 -10z"/>
<path d="M7680 4770 c-9 -6 -10 -10 -3 -10 6 0 15 5 18 10 8 12 4 12 -15 0z"/>
<path d="M7610 4750 c0 -5 5 -10 11 -10 5 0 7 5 4 10 -3 6 -8 10 -11 10 -2 0
-4 -4 -4 -10z"/>
<path d="M7740 4696 c0 -2 8 -10 18 -17 15 -13 16 -12 3 4 -13 16 -21 21 -21
13z"/>
<path d="M7610 4670 c0 -5 5 -10 11 -10 5 0 7 5 4 10 -3 6 -8 10 -11 10 -2 0
-4 -4 -4 -10z"/>
<path d="M7600 4630 c-12 -7 -10 -9 7 -7 12 0 19 5 17 9 -6 10 -6 10 -24 -2z"/>
<path d="M7670 4630 c0 -5 5 -10 11 -10 5 0 7 5 4 10 -3 6 -8 10 -11 10 -2 0
-4 -4 -4 -10z"/>
<path d="M7615 4590 c3 -5 8 -10 11 -10 2 0 4 5 4 10 0 6 -5 10 -11 10 -5 0
-7 -4 -4 -10z"/>
<path d="M7606 4508 c3 -5 10 -6 15 -3 13 9 11 12 -6 12 -8 0 -12 -4 -9 -9z"/>
<path d="M7576 4497 c3 -10 9 -15 12 -12 3 3 0 11 -7 18 -10 9 -11 8 -5 -6z"/>
<path d="M7610 4469 c0 -5 5 -7 10 -4 6 3 10 8 10 11 0 2 -4 4 -10 4 -5 0 -10
-5 -10 -11z"/>
<path d="M7669 4453 c-13 -16 -12 -17 4 -4 9 7 17 15 17 17 0 8 -8 3 -21 -13z"/>
<path d="M7615 4310 c3 -5 8 -10 11 -10 2 0 4 5 4 10 0 6 -5 10 -11 10 -5 0
-7 -4 -4 -10z"/>
<path d="M7610 4270 c0 -5 5 -10 11 -10 5 0 7 5 4 10 -3 6 -8 10 -11 10 -2 0
-4 -4 -4 -10z"/>
<path d="M7610 4190 c0 -5 5 -10 11 -10 5 0 7 5 4 10 -3 6 -8 10 -11 10 -2 0
-4 -4 -4 -10z"/>
<path d="M7600 4150 c-12 -7 -10 -9 7 -7 12 0 19 5 17 9 -6 10 -6 10 -24 -2z"/>
<path d="M7615 4110 c3 -5 8 -10 11 -10 2 0 4 5 4 10 0 6 -5 10 -11 10 -5 0
-7 -4 -4 -10z"/>
<path d="M7740 4056 c0 -2 8 -10 18 -17 15 -13 16 -12 3 4 -13 16 -21 21 -21
13z"/>
<path d="M7606 4028 c3 -5 10 -6 15 -3 13 9 11 12 -6 12 -8 0 -12 -4 -9 -9z"/>
<path d="M7670 4029 c0 -5 5 -7 10 -4 6 3 10 8 10 11 0 2 -4 4 -10 4 -5 0 -10
-5 -10 -11z"/>
<path d="M7576 4017 c3 -10 9 -15 12 -12 3 3 0 11 -7 18 -10 9 -11 8 -5 -6z"/>
<path d="M7610 3989 c0 -5 5 -7 10 -4 6 3 10 8 10 11 0 2 -4 4 -10 4 -5 0 -10
-5 -10 -11z"/>
<path d="M7669 3973 c-13 -16 -12 -17 4 -4 9 7 17 15 17 17 0 8 -8 3 -21 -13z"/>
<path d="M7615 3830 c3 -5 8 -10 11 -10 2 0 4 5 4 10 0 6 -5 10 -11 10 -5 0
-7 -4 -4 -10z"/>
<path d="M7610 3790 c0 -5 5 -10 11 -10 5 0 7 5 4 10 -3 6 -8 10 -11 10 -2 0
-4 -4 -4 -10z"/>
<path d="M7673 3735 c0 -8 4 -12 9 -9 5 3 6 10 3 15 -9 13 -12 11 -12 -6z"/>
<path d="M7610 3710 c0 -5 5 -10 11 -10 5 0 7 5 4 10 -3 6 -8 10 -11 10 -2 0
-4 -4 -4 -10z"/>
<path d="M7600 3670 c-12 -7 -10 -9 7 -7 12 0 19 5 17 9 -6 10 -6 10 -24 -2z"/>
<path d="M7615 3630 c3 -5 8 -10 11 -10 2 0 4 5 4 10 0 6 -5 10 -11 10 -5 0
-7 -4 -4 -10z"/>
<path d="M7670 3611 c0 -6 4 -13 10 -16 6 -3 7 1 4 9 -7 18 -14 21 -14 7z"/>
<path d="M7606 3548 c3 -5 10 -6 15 -3 13 9 11 12 -6 12 -8 0 -12 -4 -9 -9z"/>
<path d="M7576 3537 c3 -10 9 -15 12 -12 3 3 0 11 -7 18 -10 9 -11 8 -5 -6z"/>
<path d="M7610 3509 c0 -5 5 -7 10 -4 6 3 10 8 10 11 0 2 -4 4 -10 4 -5 0 -10
-5 -10 -11z"/>
<path d="M7714 3410 c0 -13 4 -16 10 -10 7 7 7 13 0 20 -6 6 -10 3 -10 -10z"/>
<path d="M7615 3350 c3 -5 8 -10 11 -10 2 0 4 5 4 10 0 6 -5 10 -11 10 -5 0
-7 -4 -4 -10z"/>
<path d="M7610 3310 c0 -5 5 -10 11 -10 5 0 7 5 4 10 -3 6 -8 10 -11 10 -2 0
-4 -4 -4 -10z"/>
<path d="M7610 3230 c0 -5 5 -10 11 -10 5 0 7 5 4 10 -3 6 -8 10 -11 10 -2 0
-4 -4 -4 -10z"/>
<path d="M7600 3190 c-12 -7 -10 -9 7 -7 12 0 19 5 17 9 -6 10 -6 10 -24 -2z"/>
<path d="M7615 3150 c3 -5 8 -10 11 -10 2 0 4 5 4 10 0 6 -5 10 -11 10 -5 0
-7 -4 -4 -10z"/>
<path d="M7740 3096 c0 -2 8 -10 18 -17 15 -13 16 -12 3 4 -13 16 -21 21 -21
13z"/>
<path d="M7606 3068 c3 -5 10 -6 15 -3 13 9 11 12 -6 12 -8 0 -12 -4 -9 -9z"/>
<path d="M7670 3069 c0 -5 5 -7 10 -4 6 3 10 8 10 11 0 2 -4 4 -10 4 -5 0 -10
-5 -10 -11z"/>
<path d="M7576 3057 c3 -10 9 -15 12 -12 3 3 0 11 -7 18 -10 9 -11 8 -5 -6z"/>
<path d="M7610 3029 c0 -5 5 -7 10 -4 6 3 10 8 10 11 0 2 -4 4 -10 4 -5 0 -10
-5 -10 -11z"/>
<path d="M7640 2690 c8 -5 20 -10 25 -10 6 0 3 5 -5 10 -8 5 -19 10 -25 10 -5
0 -3 -5 5 -10z"/>
<path d="M7576 2528 c3 -5 10 -6 15 -3 13 9 11 12 -6 12 -8 0 -12 -4 -9 -9z"/>
<path d="M7634 2356 c1 -8 5 -18 8 -22 4 -3 5 1 4 10 -1 8 -5 18 -8 22 -4 3
-5 -1 -4 -10z"/>
<path d="M7714 2352 c4 -3 14 -7 22 -8 9 -1 13 0 10 4 -4 3 -14 7 -22 8 -9 1
-13 0 -10 -4z"/>
<path d="M9745 2330 c-3 -6 1 -7 9 -4 18 7 21 14 7 14 -6 0 -13 -4 -16 -10z"/>
<path d="M9930 2310 c0 -5 5 -10 11 -10 5 0 7 5 4 10 -3 6 -8 10 -11 10 -2 0
-4 -4 -4 -10z"/>
<path d="M7690 2291 c0 -6 4 -13 10 -16 6 -3 7 1 4 9 -7 18 -14 21 -14 7z"/>
<path d="M7600 2270 c-9 -6 -10 -10 -3 -10 6 0 15 5 18 10 8 12 4 12 -15 0z"/>
<path d="M7633 2263 c0 -9 4 -10 14 -2 7 6 13 12 13 14 0 1 -6 2 -13 2 -8 0
-14 -6 -14 -14z"/>
<path d="M9846 2268 c3 -5 10 -6 15 -3 13 9 11 12 -6 12 -8 0 -12 -4 -9 -9z"/>
<path d="M7680 2250 c-9 -6 -10 -10 -3 -10 6 0 15 5 18 10 8 12 4 12 -15 0z"/>
<path d="M7600 2246 c0 -2 7 -7 16 -10 8 -3 12 -2 9 4 -6 10 -25 14 -25 6z"/>
<path d="M7658 2220 c13 -15 65 -23 57 -9 -3 4 -13 6 -23 4 -9 -1 -24 2 -32 8
-12 9 -13 9 -2 -3z"/>
<path d="M8310 2226 c0 -2 8 -10 18 -17 15 -13 16 -12 3 4 -13 16 -21 21 -21
13z"/>
<path d="M7835 2211 c-3 -5 -2 -12 3 -15 5 -3 9 1 9 9 0 17 -3 19 -12 6z"/>
<path d="M9995 2190 c6 -30 16 -40 12 -12 -2 12 -6 24 -10 28 -3 4 -4 -4 -2
-16z"/>
<path d="M7714 2178 l-19 -23 23 19 c12 11 22 21 22 23 0 8 -8 2 -26 -19z"/>
<path d="M9774 2186 c1 -8 5 -18 8 -22 4 -3 5 1 4 10 -1 8 -5 18 -8 22 -4 3
-5 -1 -4 -10z"/>
<path d="M9815 2190 c-3 -5 -1 -10 4 -10 6 0 11 5 11 10 0 6 -2 10 -4 10 -3 0
-8 -4 -11 -10z"/>
<path d="M9946 2192 c-2 -4 4 -8 14 -8 10 0 16 4 14 8 -3 4 -9 8 -14 8 -5 0
-11 -4 -14 -8z"/>
<path d="M7594 2169 c-4 -7 -3 -9 4 -5 5 3 13 0 15 -6 4 -9 6 -10 6 -1 1 17
-16 25 -25 12z"/>
<path d="M9556 2165 c-9 -26 -7 -32 5 -12 6 10 9 21 6 23 -2 3 -7 -2 -11 -11z"/>
<path d="M7635 2159 c-4 -6 -5 -12 -2 -15 2 -3 7 2 10 11 7 17 1 20 -8 4z"/>
<path d="M7580 2140 c6 -11 13 -20 16 -20 2 0 0 9 -6 20 -6 11 -13 20 -16 20
-2 0 0 -9 6 -20z"/>
<path d="M8110 2149 c0 -5 5 -7 10 -4 6 3 10 8 10 11 0 2 -4 4 -10 4 -5 0 -10
-5 -10 -11z"/>
<path d="M12110 11410 c0 -5 5 -10 11 -10 5 0 7 5 4 10 -3 6 -8 10 -11 10 -2
0 -4 -4 -4 -10z"/>
<path d="M12110 11249 c0 -5 5 -7 10 -4 6 3 10 8 10 11 0 2 -4 4 -10 4 -5 0
-10 -5 -10 -11z"/>
<path d="M12110 11170 c0 -5 5 -10 11 -10 5 0 7 5 4 10 -3 6 -8 10 -11 10 -2
0 -4 -4 -4 -10z"/>
<path d="M12110 10991 c0 -6 4 -13 10 -16 6 -3 7 1 4 9 -7 18 -14 21 -14 7z"/>
<path d="M12110 10930 c0 -5 5 -10 11 -10 5 0 7 5 4 10 -3 6 -8 10 -11 10 -2
0 -4 -4 -4 -10z"/>
<path d="M12110 10769 c0 -5 5 -7 10 -4 6 3 10 8 10 11 0 2 -4 4 -10 4 -5 0
-10 -5 -10 -11z"/>
<path d="M12110 10690 c0 -5 5 -10 11 -10 5 0 7 5 4 10 -3 6 -8 10 -11 10 -2
0 -4 -4 -4 -10z"/>
<path d="M12110 10511 c0 -6 4 -13 10 -16 6 -3 7 1 4 9 -7 18 -14 21 -14 7z"/>
<path d="M12110 10450 c0 -5 5 -10 11 -10 5 0 7 5 4 10 -3 6 -8 10 -11 10 -2
0 -4 -4 -4 -10z"/>
<path d="M12107 9909 c7 -7 15 -10 18 -7 3 3 -2 9 -12 12 -14 6 -15 5 -6 -5z"/>
<path d="M12107 9589 c7 -7 15 -10 18 -7 3 3 -2 9 -12 12 -14 6 -15 5 -6 -5z"/>
</g>
</svg>
