<?xml version="1.0" standalone="no"?>
<!DOCTYPE svg PUBLIC "-//W3C//DTD SVG 20010904//EN"
 "http://www.w3.org/TR/2001/REC-SVG-20010904/DTD/svg10.dtd">
<svg version="1.0" xmlns="http://www.w3.org/2000/svg"
 width="700.000000pt" height="700.000000pt" viewBox="0 0 700.000000 700.000000"
 preserveAspectRatio="xMidYMid meet">
<metadata>
Created by potrace 1.14, written by Peter Selinger 2001-2017
</metadata>
<g transform="translate(0.000000,700.000000) scale(0.100000,-0.100000)"
fill="#000000" stroke="none">
<path d="M224 6952 c-88 -31 -154 -99 -179 -187 -13 -44 -15 -471 -13 -3285
l3 -3235 21 -45 c27 -57 87 -117 144 -144 44 -21 55 -21 819 -24 672 -2 781 0
827 13 241 70 275 394 56 523 l-47 27 -625 5 -625 5 0 2895 0 2895 625 5 625
5 47 27 c218 129 185 452 -54 523 -44 13 -159 15 -812 15 -702 -1 -765 -2
-812 -18z"/>
<path d="M5142 6951 c-70 -24 -118 -65 -154 -129 -78 -137 -29 -308 110 -390
l47 -27 625 -5 625 -5 0 -2895 0 -2895 -625 -5 -625 -5 -47 -27 c-219 -129
-185 -453 56 -523 46 -13 155 -15 827 -13 765 3 775 3 820 24 58 27 116 85
143 143 l21 46 0 3255 0 3255 -21 46 c-12 25 -38 63 -59 84 -21 21 -59 47 -84
59 -46 21 -54 21 -826 23 -735 2 -783 2 -833 -16z"/>
<path d="M2510 4990 l0 -250 -250 0 -250 0 0 -250 0 -250 -250 0 -250 0 0
-245 0 -245 -245 0 -245 0 0 -250 0 -250 245 0 245 0 0 -245 0 -245 250 0 250
0 0 -250 0 -250 250 0 250 0 0 -250 0 -250 245 0 245 0 0 250 0 250 -245 0
-245 0 -2 248 -3 247 -247 3 -248 2 0 245 0 245 -250 0 -250 0 0 250 0 250
250 0 250 0 0 245 0 245 248 2 247 3 3 248 2 247 245 0 245 0 0 250 0 250
-245 0 -245 0 0 -250z"/>
<path d="M4000 4990 l0 -250 245 0 245 0 2 -247 3 -248 248 -3 247 -2 0 -245
0 -245 250 0 250 0 0 -250 0 -250 -250 0 -250 0 0 -245 0 -245 -247 -2 -248
-3 -3 -247 -2 -248 -245 0 -245 0 0 -250 0 -250 245 0 245 0 0 250 0 250 250
0 250 0 0 250 0 250 250 0 250 0 0 245 0 245 245 0 245 0 0 250 0 250 -245 0
-245 0 0 245 0 245 -250 0 -250 0 0 250 0 250 -250 0 -250 0 0 250 0 250 -245
0 -245 0 0 -250z"/>
</g>
</svg>
